<svg width="26" height="26" viewBox="0 0 26 26" fill="none" xmlns="http://www.w3.org/2000/svg">
<mask id="mask0_376_52163" style="mask-type:luminance" maskUnits="userSpaceOnUse" x="0" y="0" width="26" height="26">
<path d="M26 0H0V26H26V0Z" fill="white"/>
</mask>
<g mask="url(#mask0_376_52163)">
<path d="M12.9996 25.5075C9.68258 25.5075 6.50137 24.1899 4.15579 21.8444C1.81021 19.499 0.492379 16.3178 0.492188 13.0008C0.517269 9.70016 1.84603 6.54326 4.18884 4.21819C6.53165 1.89311 9.69855 0.588379 12.9993 0.588379C16.3 0.588379 19.4669 1.89311 21.8097 4.21819C24.1525 6.54326 25.4813 9.70016 25.5064 13.0008C25.5064 16.3178 24.1887 19.4989 21.8432 21.8444C19.4978 24.1898 16.3166 25.5075 12.9996 25.5075Z" stroke="white" stroke-miterlimit="10"/>
<path d="M11.0946 20.5595H14.1387V12.935H16.2628L16.4896 10.3827H14.1387V8.92887C14.1387 8.32654 14.2594 8.08893 14.8422 8.08893H16.4896V5.43982H14.3814C12.1158 5.43982 11.0946 6.43721 11.0946 8.34749V10.3827H9.51074V12.9675H11.0946V20.5595Z" fill="white"/>
</g>
</svg>
