<svg width="430" height="333" viewBox="0 0 430 333" fill="none" xmlns="http://www.w3.org/2000/svg">
<g clip-path="url(#clip0_397_22050)">
<path fill-rule="evenodd" clip-rule="evenodd" d="M430 25.3476C428.438 26.8648 425.755 26.2596 423.959 27.4418C422.894 28.1427 422.877 29.2714 421.635 29.7697C421.77 30.524 421.478 30.8534 421.402 31.3995C419.994 31.695 418.898 32.3058 418.615 33.7273C416.226 35.039 413.717 33.2235 411.413 33.7273V31.8667C413.293 32.3312 414.613 32.2045 416.757 32.1003C417.612 29.7753 421.433 30.4227 421.402 27.2138C420.992 26.4285 420.211 27.2194 419.078 26.9802C418.623 27.3011 419.913 27.8331 419.542 28.8408C418.21 29.7049 415.321 30.1609 413.501 29.7725C413.166 28.5846 414.212 28.7789 414.431 28.1427C413.495 28.2328 412.208 28.8858 411.41 28.3763C411.93 26.3215 415.279 26.4397 417.218 26.5157C417.322 27.4446 416.617 28.4073 414.894 28.1455C415.42 28.7845 417.37 27.9935 417.915 28.61C417.44 27.3714 419.098 26.8113 417.915 26.2821C421.141 24.9535 426.207 24.3342 429.995 25.3504L430 25.3476Z" fill="white"/>
<path fill-rule="evenodd" clip-rule="evenodd" d="M236.023 31.3966C235.591 33.367 233.834 34.0144 232.306 34.887C231.033 33.0377 234.655 31.3375 236.023 31.3966Z" fill="white"/>
<path fill-rule="evenodd" clip-rule="evenodd" d="M237.884 32.7927C237.052 32.6182 236.409 32.2551 236.257 31.3966C237.134 30.6478 238.791 31.7541 237.884 32.7927Z" fill="white"/>
<path fill-rule="evenodd" clip-rule="evenodd" d="M247.639 40.7053C247.148 41.2176 246.954 40.4069 246.246 40.4716C243.635 43.1739 248.895 44.5644 249.033 47.4524C248.724 47.4186 248.331 48.3982 248.103 47.686C247.297 47.4862 247.297 46.4785 246.709 46.0562C243.722 46.501 242.449 40.5673 244.852 39.3063C245.366 39.0361 248.01 38.4027 247.639 40.7024V40.7053Z" fill="white"/>
<path fill-rule="evenodd" clip-rule="evenodd" d="M397.942 179.172C401.444 180.433 400.12 187.746 397.942 189.413C404.754 191.389 400.292 200.585 396.316 202.445C392.741 209.882 387.816 216.322 382.842 222.692C381.319 224.643 379.951 227.852 376.801 227.813C376.214 224.162 379.302 221.977 380.982 219.667C382.772 217.204 384.211 214.538 386.093 212.218C382.446 208.416 386.709 206.113 389.114 203.842C392.604 200.545 396.552 195.11 399.103 192.205C390.685 191.462 383.769 194.961 378.195 198.488C372.437 202.13 367.36 206.558 362.398 210.589C361.633 210.597 361.24 210.983 360.307 210.822C351.414 219.847 342.535 229.499 332.197 237.586C330.646 238.799 328.831 240.24 327.086 241.543C325.538 242.697 323.315 244.831 321.045 243.638C320.278 240.961 323.048 239.722 324.529 238.517C335.816 229.333 346.817 218.701 358.911 210.127C362.271 204.835 368.172 200.486 373.314 196.864C376.936 194.311 380.4 192.326 384.93 190.812C386.374 190.33 388.055 190.291 389.575 189.649C392.637 188.357 395.166 182.846 397.706 180.805C397.706 180.186 397.619 179.476 397.94 179.175L397.942 179.172ZM393.761 189.413C395.47 189.568 396.675 187.994 396.549 187.085C395.785 188.363 393.202 187.53 393.761 189.413ZM397.942 196.627C399.361 196.802 400.196 195.169 399.8 194.299C399.229 195.127 398.389 195.679 397.942 196.627ZM387.953 209.195C389.209 208.666 390.44 206.882 390.741 206.169C389.985 207.352 388.175 207.478 387.953 209.195Z" fill="white"/>
<path fill-rule="evenodd" clip-rule="evenodd" d="M221.389 179.87H221.853C222.842 181.844 221.788 184.875 221.156 187.085C220.574 189.109 220.072 192.273 217.672 192.205C217.916 187.099 220.819 184.653 221.389 179.87Z" fill="white"/>
<path fill-rule="evenodd" clip-rule="evenodd" d="M269.942 219.897C269.636 224.215 274.126 225.178 275.983 228.043C272.156 229.851 267.643 223.585 269.245 219.897H269.942Z" fill="white"/>
<path fill-rule="evenodd" clip-rule="evenodd" d="M373.549 233.164C372.125 238.303 368.492 242.332 365.187 246.427C358.674 254.503 353.119 263.676 346.836 272.259C343.725 276.506 339.072 279.338 336.15 283.428C334.436 285.826 333.565 288.779 331.272 290.178C328.333 291.971 323.382 290.645 320.353 291.808C319.361 292.188 318.805 293.407 317.799 293.902C315.416 295.073 311.339 295.459 308.043 296.23C298.765 298.397 288 300.587 277.146 300.418C277.941 298.896 280.082 298.935 281.56 298.558C289.478 296.534 297.489 294.547 306.186 292.506C309.498 291.729 312.907 290.496 315.941 290.178C319.881 289.767 325.644 289.407 328.718 287.386C329.884 286.62 330.747 284.605 331.738 282.964C334.439 278.496 339.384 275.155 342.424 271.561C347.204 265.906 351.323 258.145 356.364 251.547C361.731 244.519 368.629 239.376 372.858 232.93C373.235 232.865 373.257 233.15 373.555 233.164H373.549Z" fill="white"/>
<path fill-rule="evenodd" clip-rule="evenodd" d="M115.224 243.635C115.081 247.418 110.256 248.766 106.862 250.151C101.86 252.192 96.9878 255.06 90.601 253.875C90.5644 253.605 90.6515 253.461 90.8342 253.411C92.7702 252.434 95.9734 252.012 98.2691 250.852C101.711 249.11 105.294 246.813 109.188 245.034C110.908 244.248 113.069 242.751 115.229 243.638L115.224 243.635Z" fill="white"/>
<path fill-rule="evenodd" clip-rule="evenodd" d="M7.66504 245.963C9.247 243.176 14.1109 244.417 17.6541 244.566C28.5789 245.028 39.3997 246.315 50.1784 247.125C57.2621 247.657 64.6127 248.473 71.7835 248.986C79.0751 249.507 86.569 248.645 92.9221 251.08C91.0507 254.32 84.1694 253.048 78.7519 252.941C68.2711 252.732 58.4731 251.848 48.5515 251.08C41.9483 250.568 35.4603 249.965 29.2701 248.986C21.4137 247.742 14.8386 246.087 7.66504 245.96V245.963Z" fill="white"/>
<path fill-rule="evenodd" clip-rule="evenodd" d="M320.12 245.265C319.629 247.041 317.313 247.139 315.939 247.592C308.111 250.16 300.24 253.064 292.477 256.203C289.67 257.337 286.129 260.003 283.185 257.833C283.539 254.497 287.59 253.974 290.153 252.946C292.907 251.843 295.927 250.737 298.748 249.689C305.52 247.17 312.964 245.29 320.12 245.267V245.265Z" fill="white"/>
<path fill-rule="evenodd" clip-rule="evenodd" d="M171.675 315.081C173.583 313.043 176.825 313.566 179.34 313.451C193.319 312.809 209.184 312.57 222.781 311.123C228.566 310.51 234.048 309.361 239.508 309.727C241.756 309.879 244.29 310.842 246.476 310.425C248.783 309.986 249.48 307.512 251.588 306.003C255.555 303.163 264.218 299.391 270.172 298.789C271.847 298.62 274.73 298.727 275.05 299.951C275.786 302.757 265.463 304.052 263.9 304.607C259.997 305.986 255.474 307.94 253.214 309.727C251.231 311.298 250.205 313.696 247.873 314.149C245.709 314.569 242.846 313.462 240.671 313.451C233.217 313.414 225.422 314.802 217.439 315.312C209.611 315.813 201.74 316.919 193.977 316.941C186.23 316.964 179.084 314.94 171.675 315.081Z" fill="white"/>
<path fill-rule="evenodd" clip-rule="evenodd" d="M160.989 313.915C159.935 317.589 155.338 316.848 152.393 317.406C149.339 317.983 146.653 319.5 143.565 320.432C138.206 322.047 131.1 322.236 124.517 322.526C117.742 322.824 110.67 322.746 104.305 322.76C97.9127 322.774 92.1103 320.66 86.4175 320.899C85.2121 321.38 85.7741 319.475 85.0238 320.201C54.8908 322.518 28.8742 330.199 0 333C0.137684 330.835 3.02061 331.055 4.41431 330.672C16.848 327.263 31.212 324.133 45.3007 321.828C61.2355 319.221 78.3195 314.96 95.7126 316.941C95.19 318.512 92.7763 318.188 91.2983 318.802C104.17 318.864 117.424 319.199 130.558 318.104C134.812 317.749 139.296 317.73 143.101 316.941C148.28 315.869 154.068 312.075 160.989 313.915Z" fill="white"/>
<path fill-rule="evenodd" clip-rule="evenodd" d="M247.639 47.6888C247.319 49.9745 244.613 50.7288 244.155 53.0398C243.801 54.8329 245.158 57.0875 243.922 59.0917C246.69 61.0114 249.03 63.3224 252.054 65.1436C252.877 65.639 254.313 66.0584 254.608 67.2378C253.439 67.8543 252.003 66.962 251.124 66.5397C254.074 71.263 258.252 76.7745 260.183 83.2964C261.062 83.8144 262.023 84.245 262.97 84.6926C262.006 80.8982 260.806 77.3093 259.486 73.9878C258.12 70.5509 256.218 67.7445 254.608 64.6791C258.572 65.8248 259.455 70.0639 261.576 73.0561C261.958 71.4995 261.84 69.4418 262.506 68.1695C261.661 64.9043 259.056 63.4012 258.092 60.257C257.162 60.1022 256.069 60.1107 255.305 59.7926C255.465 60.865 256.518 63.4519 255.071 63.9811C254.009 63.1648 253.964 60.4119 254.141 59.0945C252.967 57.6308 252.587 54.937 252.748 52.8118C252.512 51.8857 250.427 52.8118 250.657 51.4157C251.68 49.3383 254.894 51.7844 256.465 52.1137C257.87 50.2644 257.055 46.1885 258.322 44.2013C257.221 40.4885 254.493 37.1867 254.375 33.2628C258.53 36.6491 259.955 44.9078 258.556 52.3446C257.696 53.0173 255.715 53.341 254.375 52.809C253.818 57.3409 257.463 59.2972 260.646 58.6273C263.804 60.5047 266.789 62.5568 267.848 66.5397C263.591 66.3399 263.467 59.6603 259.716 60.4879C261.228 63.784 265.479 66.3483 265.988 71.4263C267.165 73.118 268.463 74.6859 269.705 76.3128C269.25 73.2672 267.28 70.5368 267.151 67.9359C269.854 68.8563 269.854 72.2651 270.868 74.6859C272.897 79.5246 274.96 83.7975 276.443 89.8128C277.123 92.5685 278.253 96.1827 277.837 98.657C277.699 99.4789 276.831 100.112 276.676 100.985C276.367 102.733 277.57 104.385 276.676 106.105C273.729 107.707 270.627 105.778 268.081 104.475C268.348 113.666 270.07 122.834 269.242 133.099C268.913 137.169 269.464 141.22 269.008 144.736C268.887 145.665 268.337 146.312 268.078 147.294C266.873 151.916 267.735 157.101 264.827 159.395C262.394 169.602 264.487 184.343 259.483 191.977C259.182 199.746 256.395 205.018 255.765 212.455C267.505 214.453 282.083 210.434 293.631 211.757C298.565 212.323 301.341 215.354 301.066 221.299C303.705 221.071 305.95 220.452 308.501 220.137C310.243 216.367 309.704 211.709 309.895 207.338C310.03 204.278 310.058 201.418 309.895 197.795C309.386 186.584 311.125 175.519 311.288 165.447C311.336 162.509 311.457 159.46 312.682 156.837C313.607 135.458 312.407 114.333 313.843 94.004C311.707 92.4981 307.807 92.7571 304.55 92.3743C304.489 93.2328 307.054 94.384 306.177 96.0983C304.281 97.5113 302.825 94.7275 300.833 95.4002C300.937 93.6578 299.167 92.6867 299.439 91.2117C299.653 90.0605 300.465 90.5334 301.53 89.5819C302.449 88.7628 303.339 87.088 304.317 86.3252C307.936 83.4935 312.474 83.2795 312.449 77.2502C313.314 77.0025 313.199 77.74 313.609 77.9483C314.944 76.4254 313.632 74.9702 313.376 73.2953C312.862 69.926 314.511 65.0901 313.143 61.428C309.976 64.6172 307.605 68.603 304.548 71.8992C302.603 80.901 295.8 86.2379 295.719 96.3347C294.806 96.8189 293.443 96.847 292.001 96.7992C292.336 98.018 294.185 100.968 293.628 103.082C291.425 103.549 291.189 98.17 291.538 96.7992C289.461 97.334 287.781 97.8688 285.963 97.2636C284.864 100.661 284.359 104.655 283.409 108.202C284.78 107.248 285.528 105.672 286.196 104.014C288.051 104.32 288.79 102.327 291.307 102.617C292.134 103.729 293.527 104.273 293.862 105.874C292.1 106.499 291.341 104.461 290.144 103.78C290.639 104.65 290.116 105.103 289.681 105.641C289.956 107.439 290.807 110.313 288.287 110.296C287.618 109.21 288.942 108.391 288.52 106.806C286.542 108.247 288.211 113.913 285.499 114.02C284.465 114.06 282.996 111.94 283.873 110.994C284.732 110.831 284.898 111.363 284.803 112.157C286.393 111.495 284.876 110.305 285.499 109.131C285.058 109.55 283.777 110.434 282.712 111.459C282.04 112.106 282.147 113.286 280.855 113.089C278.154 112.678 281.144 107.107 281.785 105.41C283.046 102.057 283.631 99.1017 284.572 97.2636C283.988 93.047 286.862 89.52 287.36 85.1627C287.483 84.0818 287.242 82.9446 287.36 81.9059C287.73 78.6548 289.293 74.7253 290.611 71.4347C294.373 62.0445 300.277 53.0089 305.014 45.3694C304.885 44.8008 304.115 44.874 304.317 43.9733C304.966 43.3512 305.464 44.19 306.174 44.2069C306.486 34.1157 318.4 32.424 325.689 29.08C325.017 26.541 326.122 19.3153 323.135 17.6771C322.674 13.5956 322.632 8.90892 325.689 7.20595C326.459 8.1461 325.13 8.54299 325.456 9.76463C326.748 9.42967 327.487 8.54299 328.707 8.13484C328.235 7.52121 326.358 8.31781 326.153 7.43677C325.692 4.59379 330.339 4.99912 331.497 3.01467C334.655 2.06889 338.134 1.44118 341.253 0.45599C341.983 0.343396 342.16 0.788139 342.647 0.920436C343.945 0.419397 345.055 -0.3772 346.828 0.222359C347.05 4.56846 346.415 9.42967 344.273 12.5569C344.259 14.1445 345.493 16.9087 343.81 17.4435C341.298 16.7004 343.251 11.4873 341.486 9.99545C340.511 9.2467 340.407 10.9778 339.396 10.9272C337.552 10.7892 336.529 11.4704 335.214 11.8589C334.835 13.4183 333.464 13.9812 331.963 14.4175C330.893 14.015 330.14 13.2972 329.409 12.5569C327.94 16.8524 335.465 17.2549 332.894 21.1675C331.545 21.4321 331.348 20.5454 330.803 20.005C329.578 20.3287 329.207 21.5081 327.782 21.6348C327.6 23.5714 328.316 25.0492 328.479 27.2194C330.66 29.6908 333.427 31.5711 334.751 34.8982C333.998 35.6188 333.711 36.8039 332.427 36.9925C333.09 32.545 329.381 31.2474 326.852 29.3136C326.414 29.7274 326.681 30.8477 325.692 30.7098C327.268 32.3114 328.389 34.3691 329.409 36.528C329.997 44.5672 332.694 53.5268 333.127 63.0578C333.273 66.3117 333.677 70.2187 333.36 73.2981C333.163 75.2122 331.733 76.538 332.199 78.6491C329.696 81.8806 327.577 85.5004 326.158 89.8184C330.803 89.0922 338.106 92.2786 341.955 91.679C343.549 91.4313 345.175 89.7339 347.067 89.1203C349.289 88.3969 351.186 88.5292 353.571 87.9578C351.568 85.2021 350.627 81.2866 349.39 76.7885C348.598 73.909 347.089 71.0435 346.603 68.6424C345.442 62.9171 345.917 57.2536 344.279 51.6549C344.108 51.1342 342.295 52.2742 342.189 51.1905C342.205 50.1997 343.72 50.7091 344.046 50.028C343.296 44.8036 340.643 40.2549 340.098 35.5991C339.553 34.9039 338.918 34.2987 337.774 34.203C336.805 35.5119 339.66 37.0797 337.774 37.927C337.92 38.4027 338.949 37.9917 338.704 38.8587C338.859 40.0972 338.274 40.5983 337.774 41.1866C339.556 48.3362 341.59 57.977 343.349 65.8557C344.158 69.4841 345.583 74.6774 343.116 76.5605C341.826 81.0108 342.169 87.0936 338.702 89.3596C338.421 88.1013 337.474 87.4764 337.308 86.3336C336.934 83.7609 338.904 80.628 338.468 77.7231C338.339 76.8561 337.451 76.1045 337.308 75.1644C336.943 72.7746 337.656 69.8246 337.541 67.2519C337.162 58.8637 336.973 50.2081 335.451 43.05C335.515 42.1324 334.459 42.3378 334.52 41.4202C334.922 39.34 335.184 37.1191 336.611 36.0664C336.296 33.5021 337.108 30.569 336.147 27.4558C335.451 26.5269 333.175 27.1772 333.36 25.3616C335.231 23.0563 337.802 26.1526 340.328 26.0597C341.975 23.9063 342.599 20.7312 343.813 18.1472C346.19 20.8044 341.896 25.6769 343.349 27.4558C341.691 27.9006 339.907 28.0047 338.238 27.4558C337.87 28.0526 338.46 29.2967 338.238 30.4818C339.595 30.4874 340.697 30.5719 341.259 32.1116C341.905 31.9061 342.099 31.2474 342.885 31.1799C351.245 29.6936 360.441 30.479 369.602 29.7837C378.826 29.0828 388.206 28.0807 396.782 27.6895C398.139 27.6275 399.459 27.8246 400.732 27.6895C404.028 27.3404 406.81 26.4453 410.258 27.4558C410.151 29.6092 410.179 32.7308 410.024 34.2058C408.752 34.6393 407.462 35.0502 406.074 35.3683C404.686 37.8426 402.48 37.1867 398.639 37.4626C393.137 37.8566 386.245 40.2718 379.591 41.8847C376.618 42.6052 373.631 43.2667 370.299 44.2125C366.545 45.2793 362.04 47.6016 359.846 45.8423C358.772 46.318 357.893 46.9879 356.595 47.2385C358.146 55.4549 357.983 66.3906 356.131 74.2327C357.075 79.0291 358.182 83.6595 358.455 89.1259C359.458 88.9458 359.61 90.463 360.312 91.2202C359.295 97.3312 366.778 98.3389 370.301 102.389C373.586 106.164 375.292 111.034 380.057 112.163C380.153 112.723 379.633 112.669 379.824 113.325C383.356 117.578 388.698 122.096 387.026 129.384C386.062 133.583 386.065 138.83 383.541 141.254C382.69 154.453 378.256 165.45 377.733 177.557C382.777 176.985 390.181 176.873 394.227 178.953C393.578 181.83 389.706 182.215 387.026 182.908C382.729 184.019 378.391 184.839 375.643 187.563C374.772 186.207 373.755 187.068 372.392 187.563C372.732 188 373.668 187.839 373.552 188.726C370.402 193.432 365.171 195.788 360.543 198.733C358.413 200.087 356.075 201.775 353.805 203.388C347.772 207.678 343.782 213.896 338.704 218.98C335.538 222.152 331.916 224.812 327.785 227.357C323.849 229.786 320.007 232.519 315.706 234.571C313.584 235.582 311.508 236.606 309.434 237.828C307.582 238.92 305.711 240.558 303.393 240.854C305.23 237.42 309.192 236.114 311.524 233.175C310.642 233.127 309.872 232.969 309.201 232.71C309.083 234.762 308.15 236.986 305.716 235.967C303.775 231.883 307.166 227.635 307.807 223.866C305.166 223.934 303.3 224.781 300.605 224.798C298.959 226.484 297.784 228.643 296.191 230.383C298.307 230.008 300.656 229.324 302.463 230.383C301.091 234.475 296.183 232.95 292.707 234.337C289.799 235.5 287.239 239.593 284.808 241.552C287.239 241.78 289.714 240.775 291.546 241.785C291.26 246.455 284.954 244.119 280.627 245.276C278.312 245.895 277.112 248.245 275.052 248.302C274.695 248.375 275.825 249.616 275.052 250.162C268.553 251.668 262.478 249.025 256.468 249.231C250.005 249.453 244.183 252.96 237.65 252.955C249.247 254.064 262.475 255.032 275.052 255.747C277.775 255.902 280.846 255.753 282.951 257.377C281.948 258.539 279.725 257.709 277.376 257.841C274.089 258.03 270.655 258.764 267.154 259.004C257.39 259.671 244.961 256.681 234.863 257.143C231.494 257.295 228.51 257.934 226.501 256.211C221.269 259.271 215.146 261.439 210.007 264.588C210.144 265.579 209.841 266.128 209.773 266.916C206.595 270.637 202.608 273.545 199.784 277.621C197.972 275.113 201.895 272.706 202.805 270.64C198.127 273.402 192.251 276.979 187.705 280.647C187.691 277.81 190.447 276.048 192.349 274.364C195.277 271.775 198.219 269.34 200.248 265.754C206.312 261.743 212.814 258.173 219.296 254.584C226.658 252.442 233.921 249.901 242.295 248.302C251.202 246.602 259.41 244.581 269.475 244.113C271.045 244.04 273.038 244.423 274.586 244.113C276.055 243.821 278.509 242.334 280.161 241.321C285.162 238.25 290.11 233.862 293.404 229.454C289.829 228.964 283.96 231.694 280.627 229.918C284.496 227.768 289.9 228.39 293.404 226.194C295.573 224.835 295.646 222.101 297.818 220.843C297.992 218.498 297.627 216.691 296.424 215.723C288.247 215.492 280.973 218.87 273.195 218.98C272.625 217.657 274.209 217.043 274.822 216.187C266.387 215.351 258.449 216.505 250.663 216.187C246.513 216.018 242.323 214.656 238.816 214.791C238.131 214.817 237.378 215.287 236.726 215.256C235.591 215.205 234.585 214.408 233.475 214.324C230.794 214.121 226.784 215.79 223.486 216.883C216.829 219.089 211.974 221.505 204.901 223.399C201.47 224.317 197.837 225.448 194.679 225.493C193.867 225.504 193.825 225.06 193.285 225.029C191.183 224.902 191.31 226.751 190.034 227.587C188.303 228.719 184.027 229.226 181.206 229.915C172.309 232.086 161.924 233.468 152.632 234.571C145.793 235.382 139.914 236.919 134.047 238.295C130.909 239.033 127.624 239.241 124.755 240.156C122.083 241.009 120.167 243.058 117.32 243.182C117.601 241.403 119.863 240.783 121.268 239.925C125.772 237.166 131.842 235.024 137.529 233.408C138.009 230.65 137.644 228.193 137.762 225.496C138.018 219.65 140.302 214.349 141.013 208.973C141.682 203.932 140.555 197.795 142.64 194.08C142.702 188.245 143.913 183.563 144.964 178.719C144.163 167.066 145.36 154.824 145.894 142.647C146.152 136.73 146.695 130.059 148.218 125.89C148.746 126.138 148.305 127.354 148.451 127.985C148.678 125.73 148.766 123.335 150.775 122.864C149.766 121.936 148.032 121.733 147.057 120.77C147.141 122.974 143.174 124.553 144.27 120.77C140.03 116.022 136.073 110.983 131.26 106.806C131.923 103.56 126.837 101.005 128.706 96.7992C128.998 96.1405 129.99 95.6901 130.333 94.7049C130.659 93.7676 130.378 92.7711 130.566 92.1462C130.948 90.8683 131.847 89.4074 132.423 87.9578C135.287 80.7631 138.012 74.0863 141.949 67.2463C143.5 64.5525 145.349 61.4308 146.827 60.2655C147.507 59.7279 148.586 59.6997 149.381 59.103C149.977 58.6554 150.356 57.7153 151.008 57.2424C154.22 54.8976 159.075 54.4135 162.157 52.5866C162.88 51.9139 163.073 50.712 163.318 49.5607C163.703 49.1694 164.681 49.3749 165.408 49.3271C166.895 45.4623 164.11 43.3371 163.085 40.0184C162.877 39.3485 163.082 38.7377 162.851 38.1578C162.528 37.3331 161.84 36.9024 161.691 36.0636C161.017 32.2551 162.961 29.3727 164.245 26.7549C165.052 26.5692 165.139 27.1012 165.872 26.9886C169.042 21.7868 179.68 24.064 185.387 21.404C186.348 23.5348 184.856 26.0175 185.387 27.9203C184.378 29.3896 183.782 31.2784 181.902 31.8751C183.271 36.6547 183.408 43.8325 183.993 48.6318C182.908 49.0343 181.127 49.8253 180.045 48.8654C180.295 50.0111 181.048 50.6557 181.206 51.8914C185.876 54.1573 191.745 54.6949 195.609 57.7096C196.775 58.6188 197.182 60.3415 198.86 60.5019C204.319 70.9337 209.88 81.2669 213.727 93.3144C214.727 94.3559 215.652 95.8252 215.121 97.7365C214.946 98.5331 216.065 98.0321 215.817 98.899C215.593 102.15 212.926 103.983 213.03 106.812C212.446 107.833 211.156 107.814 210.476 108.906C210.026 109.626 210.285 110.738 209.779 111.464C209.214 112.275 208.2 111.977 207.225 112.861C206.846 113.204 206.565 114.355 205.831 115.188C204.803 116.357 203.047 117.173 202.58 117.981C202.443 118.217 202.541 119.157 202.347 119.377C202.173 119.577 201.122 119.996 200.49 120.539C199.068 121.764 198.891 122.189 196.772 122.4C197.129 123.717 197.534 125.198 197.702 126.589C198.585 133.932 198.329 143.936 197.935 152.187C197.846 154.047 198.177 155.725 198.169 157.307C198.163 158.264 197.581 159.311 197.472 160.333C197.017 164.611 197.559 169.624 196.775 173.365C196.457 174.382 197.674 173.861 197.472 174.762C197.112 178.93 193.06 181.14 195.148 185.7C196.944 184.551 195.308 179.966 197.239 178.95C198.615 188.802 197.795 202.175 196.775 212.928C196.663 213.738 197.907 213.19 197.935 213.859V222.934C203.114 221.989 207.672 218.417 212.803 216.652C213.941 210.732 214.123 203.858 216.287 198.966C217.562 200.196 216.424 202.839 216.287 205.018C216.09 208.1 216.039 211.698 216.054 215.258C217.829 214.786 219.389 214.102 221.165 213.629C224.551 204.844 228.285 196.402 231.617 187.563C230.758 187.147 229.665 189.568 228.133 188.495C227.613 184.779 232.441 184.442 233.708 181.745C233.567 181.188 233.374 180.684 233.475 179.884C234.764 176.83 236.234 173.959 238.122 171.508C239.125 166.928 241.115 163.333 242.767 159.407C238.861 158.354 233.7 158.562 229.99 157.312C229.159 160.662 228.892 164.881 228.133 168.715C227.47 172.062 227.273 176.701 223.719 177.326C223.25 172.025 225.939 167.021 225.576 161.036C224.933 150.34 228.959 137.772 227.433 127.059C229.496 119.506 233.301 113.699 237.189 107.977C237.029 106.975 236.293 106.547 236.029 105.649C236.077 104.455 237.15 104.289 237.656 103.555C237.439 101.601 237.482 99.386 236.959 97.7365C232.354 96.574 231.491 99.9293 229.757 101.925C227.936 104.022 225.97 105.266 224.646 106.812C223.677 106.232 223.089 105.269 222.322 104.484C221.544 93.9674 225.927 82.5477 220.465 75.8596C221.151 74.4353 221.493 74.2467 220.465 73.0673C221.17 71.6036 222.232 70.4946 223.252 69.3433C222.595 69.3827 222.283 69.7684 221.625 69.8078C222.71 68.2568 225.205 68.1189 226.97 67.2491C227.532 66.6186 226.251 66.4215 226.506 65.3885C227.512 63.176 228.785 60.8116 229.757 58.1741C230.609 55.8687 232.064 52.9779 232.311 50.4952C232.753 46.0928 230.912 41.1472 231.615 36.3C233.756 37.364 233.258 40.7193 233.705 43.05C234.202 45.6453 234.958 48.0745 235.332 50.2644C236.717 46.1125 234.517 40.6461 236.959 38.1634C236.456 36.8855 236.481 35.5654 237.192 34.6731C237.751 33.9694 238.232 34.4479 239.049 33.975C241.056 32.8153 243.073 30.1018 244.857 29.5529C245.67 30.7436 246.226 29.3924 247.412 29.3193C249.839 29.1701 251.958 30.5747 253.453 31.8779C252.315 34.8757 251.865 39.7172 248.575 39.7904C248.387 36.8714 251.598 35.3852 252.292 32.576C247.87 29.0828 242.191 33.4908 239.98 36.5337C239.387 38.5772 239.814 41.6426 238.586 43.05C237.417 42.5152 238.063 40.162 237.656 38.8615C236.068 45.0316 240.643 57.248 235.565 61.2028C238.313 60.4738 240.157 58.0924 242.767 57.9461C244.371 51.0328 238.749 49.4284 238.353 43.7509C240.719 45.026 241.328 48.0604 242.997 50.0336C244.107 48.9442 245.99 47.4833 247.645 47.7057L247.639 47.6888ZM310.828 182.198C311.033 181.551 311.76 181.427 312.455 181.267C311.971 179.426 311.544 177.526 310.828 175.913C310.667 177.695 310.288 180.487 310.828 182.195V182.198ZM329.412 7.42832C330.204 7.12714 331.963 6.57824 331.736 6.03217C331.064 6.60076 329.845 6.62047 329.412 7.42832ZM171.908 29.0715C172.981 28.5818 172.09 26.9576 170.747 27.4418C170.781 28.3369 171.27 28.7816 171.908 29.0715ZM402.59 29.536C402.887 29.8569 403.978 29.9413 403.983 29.3024C403.685 28.9815 402.595 28.897 402.59 29.536ZM388.65 31.1658C388.818 31.8779 388.411 32.013 388.417 32.5619C389.524 32.5648 391.103 31.7062 391.668 32.5619C391.322 35.5541 388.344 35.9031 386.093 36.984C389.437 36.376 392.679 35.6695 394.455 33.4936C393.471 33.5499 393.078 33.0095 392.828 32.3311C392.713 31.7316 394.368 31.0138 393.292 30.935C391.541 30.8111 390.451 31.3459 388.644 31.1686L388.65 31.1658ZM176.322 31.3994C174.99 32.5479 175.288 35.3289 173.301 35.8215C171.559 31.8357 167.763 36.1255 169.817 39.5455C170.733 41.0684 172.397 40.3815 172.605 41.8734C172.203 42.7882 172.057 43.962 171.211 44.4349C168.884 43.9648 169.365 46.3067 167.493 46.2955C166.181 50.8865 169.831 52.018 170.978 55.3705C171.964 55.089 173.012 55.089 173.998 55.3705C174.56 52.2629 178.502 51.6099 176.786 48.1561C175.178 47.2863 171.764 48.2208 171.211 46.2955C171.5 45.4989 172.295 45.209 173.535 45.3638C173.397 43.0106 174.043 41.9635 175.392 41.8734C176.808 41.7777 177.851 44.3448 179.109 43.0359C179.674 43.4778 179.528 44.6319 180.27 44.8965C180.868 41.0092 181.158 34.9377 180.037 31.3994C178.407 32.0046 177.741 30.9293 176.319 31.3994H176.322ZM375.41 31.8639C374.926 35.571 370.512 35.3345 368.905 37.9157C374.407 36.9897 378.748 34.9011 381.914 31.633C379.526 31.4895 377.607 31.816 375.41 31.8667V31.8639ZM364.491 33.0264C363.51 34.0707 362.068 35.1291 360.773 36.2831C359.719 37.2205 357.693 38.8446 357.986 39.5399C362.254 38.0734 365.893 35.9791 368.672 33.0236H364.491V33.0264ZM345.209 35.1206C345.586 34.5661 346.044 34.0932 346.37 33.4908H343.349C343.571 34.431 344.428 34.735 345.206 35.1206H345.209ZM346.836 36.5168C348.674 36.0298 349.75 34.7828 351.017 33.7245C348.235 32.7815 346.499 34.5211 346.836 36.5168ZM349.857 38.8446C349.879 38.9966 350.868 39.7989 351.484 39.7763C353.004 39.7172 355.184 35.0277 356.828 34.1917C355.802 34.1326 355.03 33.8202 353.807 33.9581C354.816 37.3809 349.55 36.8489 349.857 38.8446ZM328.021 43.2667C327.85 40.0241 328.162 36.3 326.394 34.6562C326.332 38.1297 326.091 41.7861 328.021 43.2667ZM377.039 39.0783C378.658 38.6842 380.619 38.6307 381.917 37.9157C379.816 37.2458 378.191 38.1297 377.039 39.0783ZM361.476 41.8706C361.29 42.6784 361.821 42.7657 361.709 43.5004C363.035 42.9655 364.673 42.746 365.657 41.8706C364.235 41.0092 362.819 40.7109 361.476 41.8706ZM301.308 56.9975C301.499 56.412 302.533 56.6738 302.935 56.2994C303.879 53.1693 306.107 48.9837 305.722 46.059C304.989 50.2897 301.735 53.234 301.308 56.9975ZM349.626 48.8514C349.168 50.4474 349.652 51.7366 349.626 53.5071C351.47 53.2594 350.66 50.3545 351.02 48.6205C350.309 48.4516 350.337 49.0231 349.626 48.8542V48.8514ZM164.012 53.0398C166.353 56.9018 168.342 61.1156 171.214 64.4427C171.599 63.587 171.86 62.6102 173.071 62.5821C173.976 62.9171 173.995 64.1387 174.465 64.91C175.164 63.3477 176.426 61.3886 177.485 59.3253C178.716 56.9243 180.534 53.1158 179.112 51.4128C177.761 53.082 176.861 55.2101 175.395 56.7667C175.336 57.6027 176.092 57.6195 176.092 58.3964C174.113 58.5879 175.398 62.0473 173.537 62.3541C173.211 61.9825 172.737 61.7602 172.144 61.656C172.279 62.4892 171.455 62.3625 170.75 62.3541C169.056 61.7179 168.949 57.9404 170.053 56.5358C168.519 54.5035 167.42 52.0377 164.942 50.9512C164.816 51.4635 165.715 53.1102 164.012 53.0454V53.0398ZM159.134 55.8321C159.581 56.6315 160.514 58.1656 161.225 57.9264C160.618 57.3718 160.337 56.4908 160.064 55.5985C159.659 55.5816 159.342 55.6492 159.134 55.8321ZM230.451 63.511C231.227 63.359 231.586 62.7876 232.309 62.5793C232.224 60.4766 232.983 57.9827 232.309 56.0629C231.783 58.6385 231.128 61.0846 230.451 63.511ZM155.88 59.5562C159.342 63.1451 161.713 69.0731 164.476 72.5888C162.593 67.57 162.143 61.1184 157.041 59.3225C157.114 58.3711 157.864 57.9601 157.041 57.2283C156.063 57.9545 154.492 58.0896 154.02 59.3225C154.818 59.2212 155.321 59.4154 155.877 59.5562H155.88ZM184.454 60.7187C187.556 63.8938 189.009 69.9626 191.655 72.8196C189.596 67.8261 187.859 62.5061 184.917 58.3908C184.971 59.3732 184.561 59.8939 184.454 60.7187ZM299.214 65.6052C299.996 63.9867 301.176 60.6567 299.678 58.8553C298.86 61.1071 297.155 63.5307 299.214 65.6052ZM143.104 70.2609C146.009 73.1687 146.731 78.2635 150.072 80.7321C149.71 75.3502 146.478 71.6149 145.427 67.6995C147.847 67.9894 147.83 70.7226 149.375 71.8879C148.341 69.4334 146.279 68.0091 145.891 64.9071C148.232 62.4413 149.802 67.0492 151.699 67.9331C150.859 65.594 150.499 62.7735 148.448 61.6504C144.787 63.3308 145.363 66.962 143.106 70.2609H143.104ZM242.531 63.0465C243.714 62.948 244.678 63.0691 245.085 63.7446C245.217 65.9402 247.277 66.202 248.106 67.6995C251.211 73.5093 253.144 80.4957 257.165 85.385C255.262 78.4465 251.874 72.9998 248.803 67.2322C248.606 66.2583 249.432 66.3117 249.733 65.836C247.313 65.2815 244.928 61.3323 242.531 63.0437V63.0465ZM198.857 66.5369C198.194 65.4954 198.382 63.5982 197 63.2802C197.416 64.4202 198.354 66.2639 198.857 66.5369ZM323.607 72.5888C322.435 69.729 322.23 65.9008 320.356 63.7446C320.985 66.9929 322.5 70.5931 323.607 72.5888ZM304.092 67.7023C304.289 67.0464 304.843 66.748 304.789 65.8417C304.441 65.4926 304.373 64.8621 303.859 64.6791C303.432 65.3969 303.528 67.2435 304.092 67.7051V67.7023ZM294.567 71.1927C294.561 72.1187 295.238 72.9716 295.497 73.985C295.924 75.6711 295.514 78.0214 296.891 79.1051C297.329 75.1616 297.874 68.9718 296.891 65.1436C296.694 67.311 294.581 68.8592 294.567 71.1955V71.1927ZM341.261 78.8715C342.852 75.4965 340.919 70.8971 340.564 66.7706C340.857 70.7423 340.581 75.2882 341.261 78.8715ZM229.754 68.1667C230.162 68.3806 230.561 68.6002 230.451 69.3292C233.087 69.0224 236.785 69.7768 237.886 67.9331C236.169 66.52 231.654 67.5221 229.754 68.1667ZM299.911 71.1927C299.819 72.2933 300.327 72.7943 300.145 73.985C301.066 73.7429 301.004 72.5184 301.538 71.8907C301.027 71.705 301.238 70.7958 300.608 70.7282C300.546 71.0547 300.1 70.9928 299.911 71.1927ZM234.402 71.4263C231.648 73.5543 226.228 73.011 224.413 76.082C225.812 79.0263 226.815 82.3647 228.594 84.9262C230.538 82.2212 233.478 80.5098 235.796 78.1763C233.927 76.5718 237.268 73.6725 236.726 71.8935C236.113 71.5755 235.141 71.6177 234.402 71.4291V71.4263ZM268.784 82.8292C270.61 84.9572 272.122 87.3976 273.661 89.8099C273.521 87.392 272.664 85.689 272.268 83.5272C267.853 81.0446 267.617 74.379 263.672 71.4263C265.268 75.1137 269.584 78.2551 268.784 82.8292ZM236.029 78.4071C237.706 78.8462 236.006 80.4929 235.565 80.9658C236.209 81.4865 236.431 82.4266 237.192 82.8264C238.482 81.9115 236.507 79.9693 237.656 79.336C238.783 79.2909 238.468 80.6955 239.513 80.7321C240.817 78.9306 240.73 75.3108 240.443 72.586C239.864 72.6226 239.724 72.2201 239.283 72.1216C237.976 73.9934 236.875 76.0708 236.032 78.4043L236.029 78.4071ZM203.041 87.4821C201.602 82.2521 199.886 77.3008 197.697 72.8196C198.764 78.4212 201.431 82.421 203.041 87.4821ZM152.399 77.4754C152.494 77.1826 152.699 76.9997 153.096 77.0109C152.961 75.2066 152.362 73.8667 151.005 73.2869C151.303 74.8519 151.665 76.3494 152.399 77.4754ZM291.782 78.6379C292.788 79.0263 293.184 80.0256 293.873 80.7321C293.749 78.1425 294.595 75.3671 293.409 73.5177C292.979 75.3389 292.035 76.6394 291.782 78.6379ZM262.279 73.9822C262.765 75.3586 263.526 76.4564 264.136 77.7062C263.869 76.113 263.085 75.0377 262.279 73.9822ZM178.185 80.7321C178.896 77.6105 178.185 75.778 176.328 74.2158C176.134 76.2988 176.839 79.426 178.185 80.7321ZM141.016 77.0081C143.663 78.545 144.008 82.3872 146.127 84.4561C145.214 80.8729 144.017 77.5711 141.946 75.1475C141.584 75.7133 141.466 76.5296 141.016 77.0081ZM172.843 77.4725C173.034 76.417 171.391 75.9919 171.216 76.0764C171.475 76.8251 172.107 77.2023 172.843 77.4725ZM137.532 83.2908C140.195 84.8136 140.462 88.7319 143.106 90.2716C142.199 86.2154 141.224 82.2268 139.159 79.3331C138.737 80.7743 137.976 81.8721 137.532 83.288V83.2908ZM164.945 84.687C164.765 84.169 164.81 83.4259 164.248 83.2908C164.124 84.1127 164.445 84.4899 164.945 84.687ZM230.921 84.4533C231.272 85.3428 231.882 85.9705 232.547 86.5476C232.539 85.2387 232.514 83.9438 231.617 83.5216C231.384 83.8312 231.235 84.2225 230.921 84.4533ZM149.614 89.3399C148.796 89.6833 148.013 90.0633 147.29 90.5024C146.813 94.6796 143.789 96.3038 141.716 98.8793C145.321 102.871 146.889 108.9 150.775 112.61C150.702 106.623 153.497 100.889 153.562 95.6226C153.61 91.8254 152.371 87.6988 151.238 84.2197C150.3 85.5286 150.328 87.8086 149.611 89.3399H149.614ZM238.355 84.9178C238.097 87.7354 240.702 87.6876 241.143 89.8043C243.382 89.5003 243.624 91.1977 245.324 91.4341C245.035 89.3596 246.206 88.7488 246.484 87.2456C244.203 86.1844 241.699 84.1437 238.353 84.9178H238.355ZM271.577 93.762C272.771 95.5043 272.689 97.2552 274.131 98.6485C272.765 93.8886 271.141 89.3877 268.556 85.8495C267.696 90.4461 269.941 91.375 271.577 93.762ZM195.379 110.519C197.174 109.79 197.05 107.425 197.236 105.632C199.647 104.014 200.759 101.092 202.347 98.6513C198.941 95.1609 196.123 91.0794 194.215 86.0859C193.544 93.5874 194.572 102.992 195.376 110.521L195.379 110.519ZM134.514 90.9697C137.627 90.3335 136.523 93.9224 138.928 93.9956C138.571 91.0175 137.372 88.8839 136.141 86.7812C135.593 88.1717 134.876 89.3933 134.514 90.9697ZM229.527 89.5735C229.361 88.8079 229.417 87.8227 228.597 87.7129C228.049 88.4307 229.119 89.0837 229.527 89.5735ZM248.111 88.1773C247.072 89.3117 247.263 92.3292 248.111 93.5312C249.831 93.2806 250.238 94.3475 251.362 94.6937C251.427 94.2152 251.983 94.2292 252.292 93.9956C252.011 92.2223 250.682 90.7698 251.596 89.1091C250.396 88.836 249.398 88.3603 248.111 88.1773ZM234.638 94.9273C238.33 95.3411 241.562 96.2137 245.557 96.3235C245.58 95.3692 245.602 94.415 245.324 93.7648C244.287 92.7852 242.278 92.7824 240.676 92.3686C240.067 90.5756 238.701 89.5397 237.192 88.6446C236.268 90.6657 235.208 92.5516 234.638 94.9273ZM342.661 93.5312C342.307 93.548 341.59 93.1146 341.267 93.0667C338.746 92.6839 335.965 93.0357 332.438 92.8331C333.574 94.7978 338.612 92.8556 339.873 94.6937C337.985 95.9829 333.756 94.9273 331.278 95.6254C335.951 99.6337 340.539 103.724 343.591 109.356C345.861 108.061 347.429 106.063 349.399 104.47C348.685 102.834 346.358 101.652 346.611 99.8167C349.149 100.532 349.91 103.028 351.489 104.703C352.841 104.109 353.737 104.731 354.74 104.47C353.658 103.473 352.757 100.18 355.204 100.047C362.082 106.42 365.069 116.694 369.607 125.415H373.555C368.728 112.796 364.122 99.9546 354.971 91.6705C351.72 93.534 347.904 96.0729 343.124 95.6254C343.99 91.5974 352.608 93.3397 354.507 89.5735C349.413 88.76 346.673 93.3454 342.661 93.5283V93.5312ZM255.777 91.2033C257.6 94.263 259.469 97.2777 262.745 98.8821C262.588 95.5494 260.958 93.6916 259.725 91.4341C258.446 91.4088 256.721 90.8064 255.774 91.2005L255.777 91.2033ZM264.372 101.21C265.49 101.641 266.668 102.015 268.089 102.142C268.744 102.099 268.379 101.035 269.25 101.21C270.672 101.261 270.95 102.454 272.501 102.373C272.287 99.5633 271.043 97.7844 269.947 95.8562C269.461 97.4325 268.05 95.7549 267.393 95.3918V93.762C265.993 92.6811 264.04 92.1547 261.818 91.9014C263.214 94.37 266.682 97.8998 264.372 101.21ZM207.458 94.2292C208.152 94.6036 210.661 94.8063 210.479 93.5312C210.04 93.7591 207.933 93.7535 207.458 94.2292ZM201.65 93.9956C201.549 94.871 202.142 95.0568 202.58 95.3918C203.37 94.6599 202.62 93.5058 201.65 93.9956ZM289.695 94.6937C289.813 93.6437 288.829 93.7 287.837 93.762C287.556 94.9752 288.795 94.6655 289.695 94.6937ZM336.156 103.304C335.054 101.824 331.941 97.3649 329.884 97.0215C328.946 96.8639 327.819 97.4747 327.097 97.486C324.152 97.5395 321.443 95.8703 318.501 94.6937C316.096 97.8688 316.827 104.185 316.644 109.587C317.397 109.452 317.726 109.745 318.271 109.821C322.261 113.967 325.678 118.69 328.493 124.016C329.772 122.71 331.992 124.517 332.908 124.249C332.348 118.44 328.951 114.243 326.403 110.054C324.377 106.727 322.514 103.372 320.362 100.512C319.755 99.7069 318.094 98.8934 318.504 97.486C320.864 97.79 322.205 100.275 323.615 101.908C328.263 107.287 333.065 112.754 335.928 119.594C337.002 117.224 338.39 116.9 337.322 113.775C339.289 114.127 339.429 111.856 340.806 110.983C339.286 108.422 338.148 105.978 336.161 103.304H336.156ZM213.497 96.7879C213.935 96.2812 213.586 95.1497 213.033 94.9273C213.053 95.6845 213.154 96.3601 213.497 96.7879ZM191.428 101.444C191.338 99.1214 192.147 97.5564 191.195 95.6254C191.563 97.79 190.442 100.104 191.428 101.444ZM208.155 96.0926C209.158 98.2685 208.397 102.212 210.709 103.073C211.538 101.002 211.015 98.1052 210.942 95.6254C209.816 95.5832 208.959 95.8112 208.155 96.0898V96.0926ZM204.207 97.4888C203.797 99.1974 201.566 101.48 202.35 102.843C205.073 98.0884 207.076 104.391 207.228 107.729C207.334 103.667 207.003 100.042 206.531 96.5599C205.463 96.574 205.022 97.2214 204.207 97.4916V97.4888ZM256.71 97.7224C255.999 97.5029 255.982 96.5909 255.083 96.5599C255.049 97.3818 256.434 97.9814 256.71 97.7224ZM141.022 99.583C141.53 98.9018 140.611 98.0996 140.092 97.7224C140.061 98.6851 140.62 99.0538 141.022 99.583ZM382.62 133.561C384.46 128.508 382.926 123.152 380.296 118.898C379.616 117.801 378.399 117.021 377.742 115.872C376.458 113.629 375.705 112.196 374.258 110.288C371.934 107.22 370.481 104.267 367.289 102.84C367.52 100.923 364.575 99.2931 363.341 98.8849C371.746 108.464 375.278 122.921 382.623 133.561H382.62ZM185.159 105.635C184.496 103.273 183.92 100.827 182.372 99.3522C182.034 102.716 183.602 104.171 185.159 105.635ZM133.587 107.031C134.75 107.344 135.77 109.027 136.607 108.892C135.584 107.901 134.792 106.676 133.587 105.866V107.028V107.031ZM172.613 117.502C172.284 113.747 173.251 108.847 172.613 106.333C172.725 110.02 171.489 114.285 172.613 117.502ZM190.964 110.288C190.818 109.505 191.262 108.126 190.731 107.729C190.998 108.793 189.52 110.144 190.964 110.288ZM361.012 116.804C359.452 114.412 358.694 111.214 356.598 109.356C357.199 111.639 359.32 115.616 361.012 116.804ZM263.212 111.22C263.285 110.679 263.175 110.327 262.978 110.057H262.282C262.414 110.623 262.481 111.253 263.212 111.22ZM317.108 123.087C319.538 125.392 321.48 128.168 323.149 131.233C324.832 134.324 326.122 137.654 328.027 140.542C328.653 127.191 322.879 118.24 316.877 110.755C316.754 115.07 317.021 118.988 317.111 123.09L317.108 123.087ZM157.746 112.616C157.881 112.064 158.103 111.532 157.282 111.453C156.799 111.918 157.274 112.447 157.746 112.616ZM152.171 113.547C151.179 115.811 149.859 117.747 148.92 120.064C149.555 120.435 150.067 120.934 150.777 121.226C151.991 119.183 155.018 118.958 156.122 116.804C155.616 115.138 154.925 113.66 154.031 112.382C153.86 113.218 153.377 113.744 152.174 113.545L152.171 113.547ZM188.18 117.502C189.762 119.084 191.639 120.587 194.451 120.295C195.263 119.366 195.963 118.29 195.381 116.571C192.408 117.195 192.319 113.198 190.037 112.382C189.048 113.719 188.416 115.414 188.18 117.502ZM145.899 116.804C146.512 116.875 146.498 116.317 146.596 115.872C145.97 115.889 145.481 116.404 145.899 116.804ZM342.897 117.269C339.21 119.475 337.328 125.229 336.392 130.301C335.462 135.337 334.501 138.996 333.371 144.266C331.736 151.899 329.814 157.341 327.1 162.649C328.766 163.322 328.423 166.306 328.26 168.701C327.85 174.728 326.476 181.717 325.473 188.715C324.284 197.007 322.635 207.064 320.825 213.848C323.778 211.571 326.754 209.195 329.654 206.634C332.669 203.971 335.976 202.023 338.946 199.653C340.177 198.671 340.831 196.489 342.894 197.094C344.288 200.025 341.079 201.823 339.41 203.146C335.38 206.338 331.317 209.294 326.866 211.99C324.658 213.327 321.789 214.842 320.595 216.413C320.151 216.995 320.097 218.059 319.665 218.74C318.794 220.111 316.512 221.291 317.807 223.393C320.176 222.982 321.334 220.114 323.152 218.273C324.751 216.655 326.695 214.597 329.423 215.016C328.471 221.043 322.694 222.236 319.434 225.955C319.892 226.115 320.052 226.574 320.131 227.117C325.015 225.989 327.912 223.41 331.281 220.367C339.426 213.015 346.173 204.996 354.513 198.491C358.427 195.436 362.791 193.204 366.826 189.88C365.39 187.774 363.257 189.874 361.948 190.578C356.637 193.432 352.731 197.787 348.474 201.283C344.015 204.945 339.415 208.407 335.001 211.754C333.526 212.871 332.469 214.763 330.587 215.011C331.25 212.339 333.425 210.541 335.231 208.728C340.795 203.155 346.431 197.891 352.422 192.903C349.011 192.99 347.255 195.932 344.524 195.929C346.696 192.444 350.66 190.753 354.976 189.413C355.617 189.548 355.946 189.993 356.603 190.111C359.481 188.185 363.046 186.947 365.662 184.757C365.269 182.654 366.8 180.777 367.056 178.705C367.458 175.476 366.266 171.001 365.895 166.604C365.463 161.498 364.502 156.367 364.735 151.244C365.027 144.829 365.019 138.293 365.199 131.695C364.342 130.693 364.066 129.105 364.269 127.039C357.261 123.664 351.458 119.081 342.897 117.266V117.269ZM384.48 123.551C385.09 123.14 384.75 122.209 384.48 121.457H383.319C383.586 122.276 383.831 123.118 384.48 123.551ZM177.263 135.886C177.384 133.282 176.988 131.199 176.566 129.136C171.596 129.263 173.037 124.852 172.849 121.922C170.593 127.892 175.372 131.855 177.263 135.886ZM193.06 124.483C193.774 124.345 194.704 124.424 194.687 123.551C194.013 123.729 193.35 123.92 193.06 124.483ZM182.374 129.139C182.619 131.686 184.066 133.029 183.768 136.12C185.76 136.818 186.763 139.455 185.625 141.938C188.958 147.444 191.776 153.462 194.221 159.857C194.971 158.171 195.159 155.19 194.918 152.409C194.176 143.886 190.175 134 186.786 130.068C189.745 129.837 191.296 133.271 192.594 135.652C193.26 136.874 193.901 138.309 194.451 139.607C195.024 140.958 195.159 142.746 196.309 143.331C195.904 137.603 195.657 130.349 194.218 125.876C190.262 126.954 186.179 127.909 182.372 129.133L182.374 129.139ZM317.113 141.938C321.022 144.93 321.828 152.257 325.475 154.737C325.467 153.391 326.161 152.088 326.172 150.782C326.234 143.545 320.047 130.625 317.344 126.113C316.72 132.052 316.079 136.35 317.111 141.938H317.113ZM332.214 136.818C332.736 133.696 333.936 131.25 334.304 127.973C332.871 128.03 330.862 127.644 329.89 126.577C330.974 129.682 331.57 133.271 332.214 136.818ZM371.24 127.275C371.543 128.359 372.541 129.679 373.33 130.766C374.027 131.726 374.966 133.505 375.885 132.86C375.353 130.909 374.758 129.023 374.258 127.042C372.996 126.864 372.375 127.329 371.237 127.275H371.24ZM368.219 133.094C372.87 138.053 372.26 148.285 377.745 152.409C376.522 144.663 374.348 137.609 370.776 132.629C369.557 130.929 368.542 128.621 366.595 127.743C366.415 127.793 366.137 127.748 366.131 127.976C367.635 128.874 368.478 130.436 368.222 133.096L368.219 133.094ZM168.435 134.49C168.005 132.359 167.041 130.766 166.344 128.905C165.276 129.111 164.284 128.035 163.79 128.441C165.712 130.085 166.774 132.587 168.435 134.493V134.49ZM160.769 131.233C160.317 130.6 160.623 129.206 160.072 128.674H157.982C158.145 130.144 159.848 131.298 160.769 131.233ZM181.444 135.191C181.394 132.913 180.781 131.202 180.284 129.372H179.123C179.972 131.236 179.553 134.372 181.447 135.191H181.444ZM376.815 137.285C377.59 139.458 378.984 141.009 380.996 141.941C381.142 139.523 380.102 136.336 379.138 134.262C379.175 136.083 378.408 137.099 376.815 137.288V137.285ZM159.376 147.99C159.128 145.805 157.527 142.402 158.912 140.775C158.19 139.638 157.898 138.067 156.821 137.285C157.723 140.801 157.662 145.285 159.376 147.99ZM185.859 148.454C185.252 147.047 184.909 145.372 184.001 144.266C184.128 146.002 185.257 147.967 185.859 148.454ZM317.113 152.876C319.637 155.623 320.85 159.682 322.688 163.117C321.207 156.842 319.867 150.427 317.113 145.431V152.879V152.876ZM171.688 146.593C171.621 146.039 171.059 146.852 170.992 147.058C169.171 152.392 168.339 158.675 166.577 164.279C165.324 168.271 163.647 173.323 161.93 176.847C161.452 177.827 160.497 178.359 160.303 179.406C159.704 182.654 161.107 186.173 159.373 189.179C157.608 189.027 157.17 190.719 158.443 192.205C157.656 205.846 154.557 218.408 152.868 230.371C164.012 229.744 173.223 227.179 183.302 225.485C182.737 217.446 182.287 207.622 181.908 198.955C181.739 195.087 181.461 191.012 181.908 189.182C180.745 186.809 180.908 181.089 182.141 178.942C176.988 170.339 178.39 155.41 174.009 146.593H171.686H171.688ZM165.88 148.688C165.841 147.95 166.499 147.911 166.344 147.058H165.647C165.757 147.976 165.161 148.266 165.88 148.688ZM229.766 153.574H230.926C230.788 152.704 230.564 151.922 229.532 151.944C229.398 152.699 229.69 153.028 229.766 153.574ZM187.022 155.204C189.312 161.132 189.686 168.983 193.063 173.821C192.209 166.376 190.782 159.505 187.722 154.272C187.761 154.855 187.365 155.001 187.025 155.204H187.022ZM377.281 161.954C377.576 160.001 378.436 158.613 378.441 156.369C377.542 156.493 377.306 155.953 376.351 156.136C376.997 157.737 376.522 160.462 377.281 161.954ZM250.441 159.395C250.57 161.85 251.073 164.972 250.904 168.24C250.674 172.76 250.424 178.533 247.653 179.876C245.995 178.471 246.872 175.795 247.19 173.593C247.825 169.166 249.041 163.674 247.653 159.629C244.804 159.463 245.169 163.744 244.402 165.912C243.54 168.346 241.455 170.227 240.221 172.428C237.695 176.937 236.793 182.474 233.02 185.691C232.016 195.859 227.802 202.806 225.818 211.988C228.656 211.681 230.71 210.029 233.253 210.127C236.001 210.231 239.005 212.731 242.081 213.153C243.292 213.319 244.501 212.691 245.799 213.153C244.779 205.972 244.72 197.587 245.335 190.347C245.571 187.563 245.419 184.276 247.426 182.668C247.117 192.858 248.623 202.958 248.819 213.387C250.255 213.04 252.292 213.297 253.697 212.922C254.97 210.071 254.167 207.152 254.394 204.312C254.751 199.87 256.887 195.346 257.415 190.814C257.954 186.195 259.887 183.586 259.505 178.947C259.859 178.207 261.099 179.437 260.899 178.483C262.158 175.89 260.413 175.184 260.202 173.363C259.955 171.246 261.264 168.552 261.829 166.148C262.436 163.567 262.922 161.09 263.223 158.469C258.761 158.573 254.855 159.241 250.446 159.401L250.441 159.395ZM314.326 163.817C313.657 164.344 312.651 163.325 312.699 164.749C318.996 165.425 317.709 173.692 321.061 177.317C321.033 170.52 319.381 165.349 316.647 161.259C316.026 162.264 315.152 163.018 314.323 163.817H314.326ZM183.538 171.496C183.043 167.879 182.315 164.499 181.214 161.49C180.461 164.865 181.914 169.061 183.538 171.496ZM148.459 174.289C148.721 175.727 150.171 177.098 150.783 178.477C151.528 180.158 151.396 181.984 152.874 182.899C153.208 182.148 153.318 181.174 153.57 180.34C153.641 179.73 152.668 180.158 152.874 179.409C152.848 173.368 151.382 166.796 149.389 161.954C149.603 166.531 147.779 170.536 148.459 174.289ZM194.687 162.188C195.03 163.162 195.044 164.468 195.617 165.214C195.716 164.071 195.929 163.043 196.081 161.957C195.37 161.788 195.235 162.193 194.687 162.19V162.188ZM375.654 167.772C375.738 167.297 376.43 166.247 375.887 165.912C375.283 166.202 374.865 167.356 375.654 167.772ZM315.95 177.315C315.677 175.17 313.688 170.745 312.233 168.24C312.519 170.469 311.134 172.256 311.302 173.593C311.558 172.997 312.55 173.137 313.393 173.129C314.7 174.069 315.29 175.73 315.947 177.317L315.95 177.315ZM324.312 170.1C324.441 171.136 324.495 172.242 325.009 172.892C324.885 172.045 325.891 170.199 324.776 169.867C324.725 170.049 324.582 170.137 324.312 170.1ZM148.92 184.062C148.535 184.763 147.616 184.929 147.293 185.691C148.001 185.68 148.195 186.184 148.687 186.39C150.078 184.484 149.429 181.41 148.454 179.409C148.389 181.182 149.08 182.195 148.917 184.065L148.92 184.062ZM182.838 189.182C187.033 189.787 186.027 195.608 188.879 197.559C187.196 191.254 185.319 185.145 182.838 179.64C182.374 182.39 183.58 186.181 182.838 189.182ZM321.525 182.201C321.747 183.065 321.491 184.408 322.222 184.76C322.241 183.693 322.893 183.259 322.685 181.967C322.028 181.776 322.084 182.297 321.525 182.201ZM191.664 188.019C191.394 186.195 191.133 184.363 190.503 182.899C190.857 184.639 190.63 186.961 191.664 188.019ZM158.212 185.925C158.291 185.404 159.286 183.775 158.212 183.597C157.929 183.949 157.757 185.601 158.212 185.925ZM155.658 199.656C156.018 197.685 157.17 195.276 156.819 193.373C155.672 194.555 154.989 197.435 155.658 199.656ZM193.757 199.656C193.92 198.268 193.976 196.773 194.221 195.467C193.763 195.149 192.895 195.245 192.364 195.003C192.883 196.498 192.928 198.471 193.757 199.659V199.656ZM185.625 205.474C185.42 203.197 185.395 200.74 184.232 199.422C184.575 201.561 184.712 203.906 185.625 205.474Z" fill="white"/>
</g>
<defs>
<clipPath id="clip0_397_22050">
<rect width="430" height="333" fill="white"/>
</clipPath>
</defs>
</svg>
