<svg width="26" height="26" viewBox="0 0 26 26" fill="none" xmlns="http://www.w3.org/2000/svg">
<mask id="mask0_376_52169" style="mask-type:luminance" maskUnits="userSpaceOnUse" x="0" y="0" width="26" height="26">
<path d="M26 0H0V26H26V0Z" fill="white"/>
</mask>
<g mask="url(#mask0_376_52169)">
<path d="M12.9996 25.5075C9.68258 25.5075 6.50137 24.1899 4.15579 21.8444C1.81021 19.499 0.492379 16.3178 0.492188 13.0008C0.517269 9.70016 1.84603 6.54326 4.18884 4.21819C6.53165 1.89311 9.69855 0.588379 12.9993 0.588379C16.3 0.588379 19.4669 1.89311 21.8097 4.21819C24.1525 6.54326 25.4813 9.70016 25.5064 13.0008C25.5064 16.3178 24.1887 19.4989 21.8432 21.8444C19.4978 24.1898 16.3166 25.5075 12.9996 25.5075Z" stroke="white" stroke-miterlimit="10"/>
<path d="M9.91657 10.2115H7.32812V18.5742H9.91657V10.2115Z" fill="white"/>
<path d="M8.6095 9.11663C8.9153 9.11921 9.21496 9.03088 9.47047 8.86287C9.72599 8.69485 9.92583 8.45472 10.0446 8.17293C10.1635 7.89115 10.1959 7.58043 10.1378 7.28019C10.0797 6.97995 9.93377 6.70373 9.71845 6.48658C9.50313 6.26943 9.22815 6.12114 8.92841 6.06053C8.62868 5.99992 8.31769 6.02971 8.03491 6.14614C7.75214 6.26256 7.51032 6.46036 7.34015 6.71445C7.16998 6.96853 7.07912 7.26744 7.07911 7.57324C7.07758 7.98079 7.23791 8.37228 7.52487 8.66168C7.81183 8.95109 8.20195 9.11472 8.6095 9.11663Z" fill="white"/>
<path d="M14.0553 14.1816C14.0553 13.0058 14.5962 12.3038 15.6326 12.3038C16.5845 12.3038 17.0417 12.9762 17.0417 14.1816V18.5713H19.6178V13.2795C19.6178 11.0406 18.3482 9.95731 16.5751 9.95731C16.0715 9.9503 15.5747 10.0739 15.1331 10.316C14.6915 10.5581 14.3201 10.9106 14.0553 11.3389V10.2094H11.5723V18.5741H14.0553V14.1816Z" fill="white"/>
</g>
</svg>
