<svg width="31" height="29" viewBox="0 0 31 29" fill="none" xmlns="http://www.w3.org/2000/svg">
<rect width="31" height="29" rx="6" fill="#00040D"/>
<path fill-rule="evenodd" clip-rule="evenodd" d="M21 12.8516C21 14.0467 20.6315 15.2083 19.9287 16.1944L15.7208 22.6125C15.4637 23.0053 14.9323 23.114 14.5381 22.8716C14.4353 22.8047 14.341 22.7212 14.2724 22.6125L10.0902 16.2195C8.18764 13.5703 8.83897 9.92669 11.5471 8.06309C14.2639 6.20785 18.0005 6.84297 19.9116 9.48377C20.6229 10.4699 21 11.6399 21 12.8516ZM15.0009 16.1944C16.8949 16.1944 18.429 14.6985 18.429 12.8516C18.429 11.0047 16.8949 9.50884 15.0009 9.50884C13.1069 9.50884 11.5728 11.0047 11.5728 12.8516C11.5728 14.6985 13.1069 16.1944 15.0009 16.1944Z" fill="white"/>
</svg>
