<svg width="200" height="32" viewBox="0 0 200 32" fill="none" xmlns="http://www.w3.org/2000/svg">
<g id="logo" clip-path="url(#clip0_376_51166)">
<path id="Vector" d="M30.7458 5.59684V10.6871H26.0553V7.40106C26.0553 5.88091 24.7087 4.64483 23.033 4.64483H19.4572C18.6119 4.64483 17.8413 4.95961 17.2803 5.49703V0.383789H25.0304C28.1724 0.383789 30.7383 2.71776 30.7383 5.59684H30.7458Z" stroke="white" stroke-miterlimit="10"/>
<path id="Vector_2" d="M30.7467 14.0193H20.7822V18.2573H30.7467V14.0193Z" stroke="white" stroke-miterlimit="10"/>
<path id="Vector_3" fill-rule="evenodd" clip-rule="evenodd" d="M19.1135 26.8713C17.1834 26.8713 15.6274 25.5047 15.6274 23.808V0.383789H0.374023V5.12851H10.2338V25.8425C10.2338 29.021 13.1588 31.616 16.8019 31.616H20.3927V26.8713H19.1135Z" fill="white"/>
<path id="Vector_4" d="M137.625 19.1095V20.8753H144.634V19.1095H137.625ZM152.714 13.7813V20.8753H159.454V13.7813H152.714ZM137.625 13.7813V15.5471H144.634V13.7813H137.625ZM186.078 10.2419H189.474V20.8753H199.626V24.4224H189.28C188.397 24.4224 187.634 24.0922 187.006 23.432C186.377 22.7794 186.071 21.9809 186.071 21.0519V10.2419H186.078ZM164.316 10.2419H167.653L170.174 19.1632L172.717 10.2419H176.256L178.799 19.1632L181.32 10.2419H184.664L180.46 24.4224H177.139L174.49 15.1402L171.857 24.4224H168.521L164.316 10.2419ZM152.377 10.2419H159.783C160.628 10.2419 161.354 10.5567 161.952 11.1786C162.543 11.8005 162.843 12.5529 162.843 13.4358V21.2055C162.843 22.0961 162.543 22.8485 161.952 23.4703C161.354 24.0999 160.628 24.4147 159.783 24.4147H152.377C151.532 24.4147 150.806 24.0999 150.208 23.478C149.609 22.8561 149.325 22.0961 149.325 21.2055V13.4358C149.325 12.5529 149.617 11.8005 150.215 11.1786C150.814 10.5567 151.532 10.2419 152.377 10.2419ZM134.229 10.2419H144.806C145.689 10.2419 146.46 10.5721 147.088 11.2247C147.716 11.8849 148.031 12.6834 148.031 13.597V15.7544C148.031 16.3533 147.881 16.8907 147.604 17.3513C147.881 17.8043 148.031 18.3341 148.031 18.9406V21.0903C148.031 22.0039 147.724 22.7947 147.103 23.4473C146.482 24.0922 145.667 24.4224 144.642 24.43H134.229V10.2419Z" stroke="white" stroke-linejoin="round"/>
<path id="Vector_5" fill-rule="evenodd" clip-rule="evenodd" d="M71.4568 13.4435V15.7237H79.3341V13.4435H71.4568ZM121.04 10.2419H131.737V13.4435H120.987V15.7237H131.737V18.9176H120.987V21.2362H131.707L131.737 24.43H121.04C120.164 24.43 119.424 24.1153 118.803 23.478C118.182 22.8408 117.868 22.0807 117.868 21.1901V13.4819C117.868 12.5989 118.182 11.8312 118.803 11.194C119.424 10.5567 120.164 10.2419 121.04 10.2419ZM101.395 10.2419H104.515V21.2362H115.265V24.43H104.567C103.692 24.43 102.944 24.1153 102.33 23.478C101.709 22.8408 101.395 22.0807 101.395 21.1901V10.2419ZM85.0345 10.2419H98.8366V13.4435H93.63V24.3993H90.5104V13.4435H85.0345V10.2419ZM68.3373 10.2419H79.2967C80.1719 10.2419 80.92 10.5567 81.5409 11.194C82.1618 11.8312 82.4686 12.5989 82.4686 13.4819V15.7084C82.4686 16.2842 82.3264 16.8293 82.0272 17.3283C82.3264 17.8504 82.4686 18.3955 82.4686 18.9636V24.4224H79.3341V18.9176H71.4568V24.43H68.3373V10.2419ZM51.8645 10.2419H54.984V21.2362H62.5995V10.2727L65.7339 10.2419V21.1901C65.7339 22.0807 65.4197 22.8408 64.7988 23.478C64.1779 24.1153 63.4298 24.43 62.5621 24.43H55.0364C54.1611 24.43 53.413 24.1153 52.7921 23.478C52.1712 22.8408 51.8645 22.0807 51.8645 21.1901V10.2419ZM35.5039 10.2419H49.306V13.4435H44.0994V24.3993H40.9724V13.4435H35.5039V10.2419Z" fill="white"/>
<path id="Vector_6" d="M30.7467 21.1362V25.7965C30.7467 28.6372 28.8091 31.0172 26.2657 31.5163C25.9515 31.57 25.6223 31.6161 25.2857 31.6161H21.9492V26.8406H23.3706C24.9715 26.8406 26.2657 25.4664 26.2657 23.7466V21.1362H30.7467Z" stroke="white" stroke-miterlimit="8"/>
</g>
<defs>
<clipPath id="clip0_376_51166">
<rect width="200" height="32" fill="white"/>
</clipPath>
</defs>
</svg>
