<svg width="159" height="36" viewBox="0 0 159 36" fill="none" xmlns="http://www.w3.org/2000/svg">
<g id="Persistent" clip-path="url(#clip0_376_51546)">
<path id="Vector" d="M93.8386 27.405H97.7279V14.595H93.8386V27.405ZM95.7832 13.095C94.5267 13.095 93.5244 12.075 93.5244 10.89C93.5244 9.705 94.5416 8.685 95.7832 8.685C97.0248 8.685 98.0421 9.705 98.0421 10.89C98.0421 12.075 97.0248 13.095 95.7832 13.095Z" fill="#535353"/>
<path id="Vector_2" fill-rule="evenodd" clip-rule="evenodd" d="M56.5448 15.105C56.5448 11.37 53.7475 9.23999 49.7085 9.23999H43.3809V27.39H47.3749V20.955H49.7085C53.7475 20.955 56.5448 18.81 56.5448 15.09V15.105ZM49.7833 17.52H47.36V12.75H49.7833C51.384 12.75 52.5209 13.635 52.5209 15.135C52.5209 16.635 51.384 17.52 49.7833 17.52ZM63.9645 27.735C66.8367 27.735 68.9609 26.445 70.0529 24.345L66.7768 23.07C66.1635 24.03 65.4006 24.63 63.9645 24.63C62.334 24.63 60.9279 23.535 60.7932 22.035H70.4568C70.5017 21.72 70.5166 21.42 70.5166 21.105C70.5166 17.085 67.7791 14.265 63.815 14.265C59.8508 14.265 57.0086 17.145 57.0086 21C57.0086 24.855 59.8807 27.735 63.9795 27.735H63.9645ZM63.785 17.205C65.3557 17.205 66.5525 18.195 66.717 19.56H60.8381C61.0026 18.345 62.2443 17.205 63.785 17.205Z" fill="#535353"/>
<path id="Vector_3" d="M80.6747 18.27C80.4653 18.165 80.0913 18.12 79.6874 18.12C77.5333 18.12 76.2618 19.68 76.2618 22.185V27.39H72.4023V14.58H76.2319V16.68C76.92 15.195 78.3112 14.295 80.0165 14.295C80.3157 14.295 80.5999 14.34 80.6747 14.37V18.255V18.27ZM86.5686 19.155C85.8505 18.975 85.4766 18.63 85.4766 18.165C85.4766 17.64 85.9852 17.28 86.7032 17.28C87.496 17.28 88.3786 17.895 88.7825 18.87L91.9539 17.235C91.1311 15.45 89.0069 14.25 86.7331 14.25C83.7264 14.25 81.6471 15.96 81.6471 18.405C81.6471 20.43 82.9186 21.78 85.4018 22.35L86.9426 22.71C87.7354 22.89 88.1393 23.235 88.1393 23.67C88.1393 24.3 87.5858 24.66 86.7631 24.66C85.7758 24.66 84.7885 23.985 84.3098 22.92L81.1684 24.6C82.0509 26.565 84.1153 27.735 86.7331 27.735C89.7997 27.735 92.0286 25.92 92.0286 23.355C92.0286 21.54 90.6973 20.19 88.229 19.575L86.5835 19.155H86.5686ZM104.684 19.155C103.966 18.975 103.592 18.63 103.592 18.165C103.592 17.64 104.101 17.28 104.819 17.28C105.611 17.28 106.494 17.895 106.898 18.87L110.069 17.235C109.247 15.45 107.122 14.25 104.849 14.25C101.842 14.25 99.7625 15.96 99.7625 18.405C99.7625 20.43 101.034 21.78 103.517 22.35L105.058 22.71C105.851 22.89 106.255 23.235 106.255 23.67C106.255 24.3 105.701 24.66 104.878 24.66C103.891 24.66 102.904 23.985 102.425 22.92L99.2838 24.6C100.166 26.565 102.231 27.735 104.849 27.735C107.9 27.735 110.144 25.92 110.144 23.355C110.144 21.54 108.813 20.19 106.344 19.575L104.699 19.155H104.684ZM116.591 10.83V14.595H119.912V17.7H116.591V22.395C116.591 23.775 117.205 24.315 118.476 24.315C118.955 24.315 119.494 24.18 119.912 23.925V27.195C119.329 27.48 118.446 27.72 117.205 27.72C114.437 27.72 112.732 26.055 112.732 23.205V17.715H110.877V14.595H112.747V10.83H116.606H116.591Z" fill="#535353"/>
<path id="Vector_4" fill-rule="evenodd" clip-rule="evenodd" d="M127.75 27.735C130.622 27.735 132.747 26.445 133.839 24.345L130.563 23.07C129.949 24.03 129.171 24.63 127.735 24.63C126.12 24.63 124.699 23.535 124.564 22.035H134.228C134.257 21.885 134.287 21.54 134.287 21.105C134.287 17.085 131.55 14.265 127.586 14.265C123.622 14.265 120.779 17.145 120.779 21C120.779 24.855 123.651 27.735 127.75 27.735ZM127.571 17.205C129.141 17.205 130.338 18.195 130.503 19.56H124.624C124.788 18.345 126.03 17.205 127.571 17.205Z" fill="#535353"/>
<path id="Vector_5" d="M140.062 27.405H136.173V14.595H140.062V16.23C140.855 14.985 142.186 14.265 143.952 14.265C146.958 14.265 148.798 16.26 148.798 19.5V27.405H144.909V20.37C144.909 18.69 144.056 17.73 142.545 17.73C141.035 17.73 140.077 18.825 140.077 20.61V27.405H140.062ZM155.665 14.595V10.83H151.805V14.595H149.935V17.7H151.805V23.19C151.805 26.04 153.51 27.705 156.278 27.705C157.534 27.705 158.402 27.465 158.985 27.18V23.91C158.567 24.165 158.028 24.3 157.549 24.3C156.278 24.3 155.665 23.76 155.665 22.38V17.685H158.985V14.58H155.665V14.595Z" fill="#535353"/>
<path id="Vector_6" fill-rule="evenodd" clip-rule="evenodd" d="M34.047 5.96999C33.658 4.79999 33.0298 3.73499 32.207 2.83499C31.3843 1.93499 30.382 1.22999 29.275 0.734994C27.0461 -0.240006 24.518 -0.255006 22.2891 0.734994C20.0902 1.72499 18.3848 3.56999 17.577 5.84999C17.3826 6.41999 17.2479 6.98999 17.1582 7.58999C17.0684 8.17499 17.0684 8.78999 17.0834 9.34499L17.1133 12.72L17.1582 19.47V22.845C17.1731 23.415 17.1731 23.97 17.1881 24.525C17.1881 24.81 17.2031 25.095 17.1881 25.365C17.1881 25.635 17.1731 25.905 17.1731 26.175C17.1432 26.715 17.0684 27.27 16.9637 27.795C16.844 28.335 16.6795 28.86 16.4401 29.355C15.9764 30.375 15.3182 31.29 14.4955 32.04C12.835 33.54 10.5762 34.35 8.34728 34.17C7.24031 34.095 6.1483 33.78 5.161 33.255C4.1737 32.73 3.30607 31.995 2.61796 31.11C2.2739 30.675 1.95976 30.195 1.70545 29.7C1.43619 29.205 1.22676 28.68 1.06221 28.155C0.733112 27.09 0.658317 25.965 0.807908 24.87C0.897662 24.33 1.01733 23.79 1.18188 23.28C1.36139 22.77 1.58578 22.275 1.84008 21.81C2.09439 21.345 2.39357 20.91 2.72267 20.52C3.03681 20.115 3.39583 19.755 3.79972 19.455C5.34051 18.18 7.40486 17.64 9.49913 17.64C11.6682 17.64 13.8522 17.67 16.0213 17.67V15.375C13.8373 15.42 11.6832 15.57 9.51409 15.72C8.3024 15.81 7.12064 16.095 5.99871 16.575C5.44522 16.815 4.90669 17.1 4.39809 17.43C3.39583 18.075 2.5282 18.915 1.84008 19.905C1.49603 20.385 1.2118 20.91 0.957499 21.435C0.44889 22.515 0.134749 23.655 0.000117794 24.84C-0.119555 26.04 -0.0447594 27.27 0.239463 28.455C0.523685 29.67 1.03229 30.81 1.73537 31.845C2.46836 32.91 3.39583 33.825 4.48784 34.53C5.60977 35.25 6.88129 35.715 8.19769 35.91C8.36224 35.94 8.52679 35.955 8.69134 35.97C8.85589 35.985 9.02044 36 9.19995 36.015C9.3645 36.015 9.54401 36.03 9.70856 36.015C10.5762 36.015 11.4288 35.895 12.2516 35.655C12.9248 35.46 13.568 35.22 14.1813 34.905C14.7946 34.59 15.378 34.2 15.9315 33.765C17.2928 32.64 18.3549 31.185 19.0131 29.535C19.1477 29.205 19.2524 28.875 19.3572 28.53C19.5367 27.855 19.6713 27.15 19.7461 26.46C19.776 26.115 19.8059 25.755 19.8209 25.41V24.96L19.8658 24.54L19.9406 22.86L20.2248 9.37499V8.95499V8.84999V8.77499V8.63999C20.2697 8.08499 20.3744 7.52999 20.5688 7.00499C20.8381 6.31499 21.227 5.66999 21.7207 5.12999C22.2293 4.58999 22.8277 4.13999 23.5158 3.83999C24.1889 3.53999 24.9369 3.38999 25.6699 3.38999C26.4178 3.38999 27.1658 3.52499 27.8539 3.80999C28.542 4.09499 29.1853 4.54499 29.7088 5.09999C30.2324 5.65499 30.6513 6.31499 30.9205 7.04999C31.1898 7.78499 31.3095 8.57999 31.2795 9.35999C31.1748 11.85 29.4845 13.995 27.076 14.67C26.6871 14.79 26.2832 14.865 25.8644 14.895H25.7148C25.7148 14.895 25.625 14.91 25.5502 14.91L21.1971 15.03L21.1373 17.685L25.5502 17.745H25.999C26.5973 17.715 27.1957 17.64 27.7941 17.505C28.9758 17.22 30.0978 16.695 31.0552 15.945C32.0275 15.195 32.8203 14.235 33.4037 13.155C34.5705 10.965 34.78 8.36999 34.0021 6.01499L34.047 5.96999Z" fill="#FD5F07"/>
</g>
<defs>
<clipPath id="clip0_376_51546">
<rect width="159" height="36" fill="white"/>
</clipPath>
</defs>
</svg>
