<svg width="193" height="29" viewBox="0 0 193 29" fill="none" xmlns="http://www.w3.org/2000/svg">
<g id="smartkarrt" clip-path="url(#clip0_376_51673)">
<g id="Group">
<path id="Vector" d="M137.834 29C136.584 29 135.49 28.0508 135.49 26.6269V11.2804C135.49 10.0148 136.428 8.90729 137.834 8.90729C138.928 8.90729 139.866 9.85655 140.022 10.964C140.022 11.1222 140.178 11.2804 140.178 11.2804H140.335C140.439 11.2804 140.543 11.2277 140.647 11.1222C141.898 9.85655 143.46 9.0655 145.023 9.0655C146.273 9.0655 147.055 9.85655 147.055 11.1222C147.055 12.3879 146.273 13.179 144.867 13.3372C141.898 13.4954 140.022 15.5521 140.022 18.7163V26.6269C140.022 27.8926 139.085 29 137.834 29Z" fill="#2E2B78"/>
<path id="Vector_2" d="M151.587 29C150.337 29 149.243 28.0508 149.243 26.6269V11.2804C149.243 10.0148 150.181 8.90729 151.587 8.90729C152.681 8.90729 153.619 9.85655 153.775 10.964C153.775 11.1222 153.931 11.2804 153.931 11.2804H154.088C154.192 11.2804 154.296 11.2277 154.4 11.1222C155.65 9.85655 157.213 9.0655 158.776 9.0655C160.026 9.0655 160.808 9.85655 160.808 11.1222C160.808 12.3879 160.026 13.179 158.62 13.3372C155.65 13.4954 153.775 15.5521 153.775 18.7163V26.6269C153.931 27.8926 152.837 29 151.587 29Z" fill="#2E2B78"/>
<path id="Vector_3" d="M189.094 29C184.249 29 181.749 26.6268 181.749 22.0387V13.3372C181.749 13.1789 181.592 13.0207 181.436 13.0207H180.342C179.248 13.0207 178.467 12.2297 178.467 11.1222C178.467 10.0147 179.248 9.22368 180.342 9.22368H181.436C181.592 9.22368 181.749 9.06547 181.749 8.90726V6.69231C181.749 5.26842 182.686 4.31915 184.093 4.31915C185.343 4.31915 186.437 5.26842 186.437 6.69231V8.74905C186.437 8.90726 186.593 9.06547 186.749 9.06547H190.969C192.063 9.06547 192.844 9.85652 192.844 10.964C192.844 12.0715 192.063 12.8625 190.969 12.8625H186.749C186.593 12.8625 186.437 13.0207 186.437 13.1789V21.4059C186.437 23.7791 187.531 24.7283 190.187 24.7283H190.969C192.219 24.7283 193 25.3612 193 26.6268C193 27.4179 192.532 28.0507 191.906 28.3672C190.969 28.8418 190.187 29 189.094 29Z" fill="#2E2B78"/>
<path id="Vector_4" d="M101.422 29C100.172 29 99.0781 28.0507 99.0781 26.6268V6.85051C99.0781 5.42662 100.016 4.47736 101.422 4.47736C102.829 4.47736 103.766 5.42662 103.766 6.85051V26.6268C103.766 27.8925 102.829 29 101.422 29ZM111.58 28.8418C110.799 28.8418 110.174 28.5254 109.705 27.8925L103.61 20.773C103.141 20.1402 102.829 19.6656 102.829 19.0327C102.829 18.5581 102.985 17.9253 103.61 17.2924L109.236 10.1729C109.705 9.69831 110.33 9.38188 111.111 9.38188C112.362 9.38188 113.299 10.3311 113.299 11.5968C113.299 12.2297 112.987 12.7043 112.518 13.3371L107.83 18.8745C107.673 19.0327 107.673 19.1909 107.83 19.3492L112.987 25.0447C113.455 25.6776 113.768 26.1522 113.768 26.785C113.768 27.8925 112.83 28.8418 111.58 28.8418Z" fill="#2E2B78"/>
<path id="Vector_5" d="M7.50121 29C4.84453 29 2.50041 28.0507 0.625101 26.3104C0.156275 25.994 0 25.5194 0 24.8865C0 23.7791 0.781377 22.988 1.8753 22.988C2.34413 22.988 2.65668 23.1462 3.12551 23.4626C4.53198 24.7283 5.93846 25.203 7.50121 25.203C9.22024 25.203 10.3142 24.4119 10.3142 23.3044C10.3142 22.197 9.37652 21.7223 8.12632 21.2477L6.09474 20.4566C3.12551 19.191 1.09393 17.7671 1.09393 14.9193C1.09393 11.5968 3.75061 9.3819 7.81377 9.3819C10.0016 9.3819 12.1895 10.173 13.596 11.4386C14.2211 11.7551 14.3773 12.2297 14.3773 12.8625C14.3773 13.8118 13.596 14.7611 12.502 14.7611C12.1895 14.7611 11.7206 14.6028 11.2518 14.2864C10.3142 13.3372 8.90769 13.0207 7.65749 13.0207C6.09474 13.0207 5.31336 13.6536 5.31336 14.7611C5.31336 15.8685 6.25101 16.3432 7.50121 16.8178L9.37652 17.6088C12.502 18.8745 14.5336 20.2984 14.5336 23.1462C14.5336 26.6269 11.8769 29 7.50121 29Z" fill="#2E2B78"/>
<path id="Vector_6" d="M43.4448 29C42.1946 29 41.1007 28.0508 41.1007 26.6269V17.6089C41.1007 15.0775 39.6942 13.4954 37.3501 13.4954C35.1622 13.4954 33.4432 15.0775 33.4432 17.4507V26.6269C33.4432 28.0508 32.5055 29 31.0991 29C29.8489 29 28.7549 28.0508 28.7549 26.6269V17.6089C28.7549 15.0775 27.3485 13.4954 25.0043 13.4954C22.6602 13.4954 21.0974 15.0775 21.0974 17.6089V26.6269C21.0974 28.0508 20.1598 29 18.7533 29C17.5031 29 16.4092 28.0508 16.4092 26.6269V11.5969C16.4092 10.3312 17.3468 9.2237 18.7533 9.2237C19.8472 9.2237 20.6286 9.85654 20.9412 10.964C20.9412 11.1222 21.0974 11.1222 21.0974 11.1222H21.2537C21.3579 11.1222 21.41 11.0695 21.41 10.964C22.6602 9.69833 24.3792 9.06549 26.4108 9.06549C28.7549 9.06549 30.6302 10.0148 31.8804 11.7551C31.8804 11.9133 32.0367 11.9133 32.193 11.9133C32.3493 11.9133 32.3493 11.9133 32.5055 11.7551C34.0683 10.0148 36.2561 9.06549 38.6003 9.06549C42.8197 9.06549 45.4764 11.9133 45.4764 16.5014V26.3104C45.7889 27.8925 44.8513 29 43.4448 29Z" fill="#2E2B78"/>
<path id="Vector_7" d="M66.5733 11.4386V27.1015C66.5733 28.209 65.6357 29 64.698 29C63.6041 29 62.8227 28.209 62.8227 27.1015C61.2599 28.209 59.3846 29 57.3531 29C52.196 29 48.1328 24.5701 48.1328 19.191C48.1328 13.8118 52.196 9.3819 57.3531 9.3819C59.3846 9.3819 61.2599 10.0147 62.8227 11.2804C62.8227 10.3312 63.7603 9.3819 64.698 9.3819C65.6357 9.54011 66.5733 10.3312 66.5733 11.4386ZM62.6664 19.191C62.6664 16.0267 60.3223 13.3372 57.3531 13.3372C54.3838 13.3372 51.8834 16.0267 51.8834 19.191C51.8834 22.3552 54.2275 25.0447 57.1968 25.0447C60.3223 25.0447 62.6664 22.5134 62.6664 19.191Z" fill="#2E2B78"/>
<path id="Vector_8" d="M133.147 11.4386V27.1015C133.147 28.209 132.209 29 131.271 29C130.177 29 129.396 28.209 129.396 27.1015C127.833 28.209 125.958 29 123.926 29C118.769 29 114.706 24.5701 114.706 19.191C114.706 13.8118 118.769 9.3819 123.926 9.3819C125.958 9.3819 127.833 10.0147 129.396 11.2804C129.396 10.3312 130.334 9.3819 131.271 9.3819C132.365 9.54011 133.147 10.3312 133.147 11.4386ZM129.396 19.191C129.396 16.0267 127.052 13.3372 124.083 13.3372C121.113 13.3372 118.769 16.0267 118.769 19.191C118.769 22.3552 121.113 25.0447 124.083 25.0447C126.896 25.0447 129.396 22.5134 129.396 19.191Z" fill="#2E2B78"/>
</g>
<path id="Vector_9" d="M174.247 29C173.622 29 172.996 28.6836 172.528 28.0508L163.464 13.4954C162.839 12.5461 162.839 11.2804 163.62 10.3312C164.089 9.69833 165.026 9.22369 165.964 9.22369H174.403C175.497 9.22369 176.434 10.0147 176.434 11.1222C176.434 11.5969 176.278 12.2297 175.966 12.5461C175.653 12.8625 175.028 13.179 174.559 13.179H168.464C168.36 13.179 168.308 13.2317 168.308 13.3372V13.4954L175.966 25.994C176.591 26.9433 176.278 28.0508 175.341 28.6836C175.028 28.8418 174.559 29 174.247 29Z" fill="#F48938"/>
<path id="Vector_10" d="M172.215 7.32512H167.214C166.589 7.32512 165.964 6.69228 165.964 6.05944C165.964 5.4266 166.589 4.79375 167.214 4.79375H169.871L166.433 2.26238C165.808 1.78775 165.808 0.996698 166.12 0.522067C166.589 -0.110776 167.371 -0.110776 167.839 0.205645L173.153 4.16091C173.778 4.63554 173.934 5.4266 173.778 6.05944C173.622 6.85049 172.84 7.32512 172.215 7.32512Z" fill="#67C273"/>
<path id="Vector_11" d="M92.5154 29C87.6709 29 85.1705 26.6268 85.1705 22.0387V13.3372C85.1705 13.1789 85.0142 13.0207 84.8579 13.0207H83.764C82.67 13.0207 81.8887 12.2297 81.8887 11.1222C81.8887 10.0147 82.67 9.22368 83.764 9.22368H84.8579C85.0142 9.22368 85.1705 9.06547 85.1705 8.90726V6.69231C85.1705 5.26842 86.1081 4.31915 87.5146 4.31915C88.7648 4.31915 89.8587 5.26842 89.8587 6.69231V8.90726C89.8587 9.06547 90.015 9.22368 90.1713 9.22368H94.3907C95.4846 9.22368 96.266 10.0147 96.266 11.1222C96.266 12.2297 95.4846 13.0207 94.3907 13.0207H90.1713C90.015 13.0207 89.8587 13.1789 89.8587 13.3372V21.5641C89.8587 23.9373 90.9526 24.8865 93.6093 24.8865H94.3907C95.6409 24.8865 96.4223 25.5194 96.4223 26.7851C96.4223 27.5761 95.9534 28.209 95.3283 28.5254C94.3907 28.8418 93.453 29 92.5154 29Z" fill="#2E2B78"/>
<path id="Vector_12" d="M71.1049 29C69.8547 29 68.7607 28.0507 68.7607 26.6268V11.2804C68.7607 10.0147 69.6984 8.90723 71.1049 8.90723C72.1988 8.90723 73.1365 9.85649 73.2927 10.964C73.2927 11.1222 73.449 11.2804 73.449 11.2804H73.9178C75.168 10.0147 76.7308 9.22365 78.2935 9.22365C79.5437 9.22365 80.3251 10.0147 80.3251 11.2804C80.3251 12.5461 79.5437 13.3371 78.1373 13.4953C75.168 13.6535 73.2927 15.7103 73.2927 18.8745V26.785C73.449 27.8925 72.5113 29 71.1049 29Z" fill="#2E2B78"/>
</g>
<defs>
<clipPath id="clip0_376_51673">
<rect width="193" height="29" fill="white"/>
</clipPath>
</defs>
</svg>
