<svg width="153" height="36" viewBox="0 0 153 36" fill="none" xmlns="http://www.w3.org/2000/svg">
<g id="TCS" clip-path="url(#clip0_376_51553)">
<path id="Vector" d="M41.04 32.6135C41.04 33.4477 41.46 34.123 42.56 34.6395C44.08 35.3644 46.54 35.9901 48.74 35.9901C51.52 35.9901 53.82 35.1559 55.45 33.7059C55.97 33.2392 56.41 32.6036 56.5 31.7793C56.7 29.8825 54.69 26.7145 50.52 24.3906C52.55 25.5228 53.04 26.6748 53.04 28.1843C53.04 30.4188 51.26 31.9283 48.69 31.9283C46.12 31.9283 44.13 30.677 42.98 30.677C41.83 30.677 41.04 31.4516 41.04 32.6036V32.6135Z" fill="url(#paint0_linear_376_51553)"/>
<path id="Vector_2" d="M68.9201 8.96772H72.5301V2.58207H75.0901V0H66.3701V2.58207H68.9301V8.96772H68.9201Z" fill="#347DC1"/>
<path id="Vector_3" d="M77.7505 8.96772L79.5905 3.60497L81.4305 8.96772H84.9505L81.5005 0H77.6805L74.2305 8.96772H77.7605H77.7505Z" fill="#347DC1"/>
<path id="Vector_4" d="M86.6398 8.96772H90.2498V2.58207H92.8098V0H84.0898V2.58207H86.6498V8.96772H86.6398Z" fill="#347DC1"/>
<path id="Vector_5" d="M95.4597 8.96772L97.2997 3.60497L99.1397 8.96772H102.67L99.2097 0H95.3897L91.9297 8.96772H95.4597Z" fill="#347DC1"/>
<path id="Vector_6" d="M130.06 15.3732C130.54 16.4359 131.08 17.4687 131.68 18.4618L134.03 22.4044H135.74V13.4367H134.21V16.565C134.21 17.9354 134.24 19.0874 134.36 20.2792H134.33C133.89 19.2563 133.37 18.2532 132.79 17.28L130.46 13.4268H128.58V22.3945H130.11V19.1868C130.11 17.717 130.09 16.5352 130.02 15.3633H130.06V15.3732Z" fill="#347DC1"/>
<path id="Vector_7" d="M121.87 19.8819H124.74L125.56 22.4143H127.33L124.4 13.4466H122.3L119.4 22.4143H121.11L121.88 19.8819H121.87ZM122.84 16.4259C123 15.8896 123.14 15.2739 123.27 14.7476H123.3C123.44 15.264 123.58 15.8797 123.76 16.4259L124.47 18.6306H122.14L122.84 16.4259Z" fill="#347DC1"/>
<path id="Vector_8" d="M94.9797 21.1928C94.2197 21.1928 93.4697 20.9942 92.7997 20.6168L92.4297 21.9773C92.9297 22.2753 93.9197 22.5533 94.8697 22.5533C97.1997 22.5533 98.2997 21.302 98.2997 19.862C98.2997 18.571 97.5497 17.7865 95.9797 17.2005C94.7697 16.7437 94.2497 16.416 94.2497 15.7307C94.2497 15.2044 94.6897 14.6482 95.7397 14.6482C96.3697 14.6482 96.9897 14.7873 97.5497 15.0753L97.9397 13.7545C97.4697 13.5161 96.7497 13.3076 95.7697 13.3076C93.8097 13.3076 92.5697 14.4099 92.5697 15.8797C92.5697 17.1608 93.5197 17.9553 95.0197 18.4816C96.1597 18.8888 96.6197 19.296 96.6197 19.9713C96.6197 20.7062 96.0297 21.1928 94.9697 21.1928H94.9797Z" fill="#347DC1"/>
<path id="Vector_9" d="M71.2701 14.6582C71.8701 14.6582 72.4701 14.7674 73.0301 15.0058L73.3901 13.7048C73.0601 13.526 72.2901 13.3076 71.2001 13.3076C68.4401 13.3076 66.3701 15.0852 66.3701 18.0347C66.3701 20.7658 68.1201 22.5533 70.9801 22.5533C72.0701 22.5533 72.9301 22.3448 73.3201 22.1462L73.0501 20.8551C72.6101 21.0538 71.9201 21.1829 71.2501 21.1829C69.2601 21.1829 68.1101 19.9316 68.1101 17.9553C68.1101 15.8002 69.4301 14.6582 71.2801 14.6582H71.2701Z" fill="#347DC1"/>
<path id="Vector_10" d="M117.39 22.4143V14.827H119.99V13.4466H113.16V14.827H115.74V22.4143H117.39Z" fill="#347DC1"/>
<path id="Vector_11" d="M150.37 13.4466L149.28 15.7407C148.97 16.3961 148.72 16.9522 148.5 17.5183H148.47C148.22 16.9125 147.99 16.406 147.68 15.7407L146.61 13.4466H144.73L147.59 18.6802V22.4143H149.24V18.6405L152.24 13.4565H150.37V13.4466Z" fill="#347DC1"/>
<path id="Vector_12" d="M78.1701 13.2977C75.6201 13.2977 73.8701 15.2442 73.8701 17.995C73.8701 20.7459 75.4801 22.5534 78.0401 22.5534H78.0501C80.5201 22.5534 82.3601 20.8353 82.3601 17.8362C82.3601 15.2739 80.8101 13.2977 78.1701 13.2977ZM78.1001 21.2425C76.5201 21.2425 75.6001 19.733 75.6001 17.9553C75.6001 16.1777 76.4701 14.6086 78.1101 14.6086C79.7501 14.6086 80.6001 16.2075 80.6001 17.8957C80.6001 19.7727 79.7001 21.2425 78.1001 21.2425Z" fill="#347DC1"/>
<path id="Vector_13" d="M142.08 14.6582C142.68 14.6582 143.29 14.7674 143.84 15.0058L144.2 13.7048C143.86 13.526 143.1 13.3076 142.01 13.3076C139.25 13.3076 137.17 15.0852 137.17 18.0347C137.17 20.7658 138.92 22.5533 141.78 22.5533C142.87 22.5533 143.73 22.3448 144.12 22.1462L143.85 20.8551C143.41 21.0538 142.72 21.1829 142.05 21.1829C140.06 21.1829 138.9 19.9316 138.9 17.9553C138.9 15.8002 140.22 14.6582 142.07 14.6582H142.08Z" fill="#347DC1"/>
<path id="Vector_14" d="M110.36 13.4466H108.71V22.4143H114.07V21.0438H110.36V13.4565V13.4466Z" fill="#347DC1"/>
<path id="Vector_15" d="M106.83 18.571V13.4466H105.18V18.6703C105.18 20.4281 104.47 21.2325 103.28 21.2325C102.16 21.2325 101.43 20.4182 101.43 18.6703V13.4466H99.7803V18.571C99.7803 21.3914 101.14 22.5534 103.22 22.5534C105.4 22.5534 106.83 21.3219 106.83 18.5611V18.571Z" fill="#347DC1"/>
<path id="Vector_16" d="M90.9403 13.4466H89.4103V16.5749C89.4103 17.9454 89.4403 19.0974 89.5603 20.2891H89.5303C89.0903 19.2662 88.5703 18.2632 87.9903 17.2899L85.6603 13.4367H83.7803V22.4044H85.3103V19.1967C85.3103 17.7269 85.2903 16.5451 85.2203 15.3733H85.2603C85.7403 16.4259 86.2803 17.4588 86.8803 18.4519L89.2303 22.3945H90.9403V13.4367V13.4466Z" fill="#347DC1"/>
<path id="Vector_17" d="M97.9996 26.8932H96.3496V35.861H97.9996V26.8932Z" fill="#347DC1"/>
<path id="Vector_18" d="M85.0099 31.6602V31.6204C85.8599 31.3225 86.6399 30.538 86.6399 29.3959C86.6399 28.6312 86.3599 28.0155 85.8699 27.6083C85.2699 27.1118 84.2199 26.8933 83.1099 26.8933C82.2799 26.8833 81.4499 26.9429 80.6299 27.082V35.8511H82.2499V32.1964H83.0699C83.9999 32.2163 84.4299 32.5937 84.6799 33.7556C84.9299 34.858 85.1499 35.5929 85.2799 35.8511H86.9599C86.7799 35.5035 86.5399 34.4806 86.2499 33.3683C86.0299 32.5043 85.6499 31.8886 84.9999 31.6502L85.0099 31.6602ZM83.2099 31.0147H82.2399V28.2042C82.5699 28.1446 82.9199 28.1148 83.2599 28.1247C84.3199 28.1247 85.0099 28.5815 85.0099 29.5548C85.0099 30.4387 84.3299 31.0147 83.2199 31.0147H83.2099Z" fill="#347DC1"/>
<path id="Vector_19" d="M92.2997 30.9948C91.9497 32.0872 91.6197 33.1796 91.3797 34.2323H91.3497C91.1097 33.1498 90.8097 32.0971 90.4597 30.965L89.2297 26.8932H87.4297L90.3497 35.861H92.2397L95.3597 26.8932H93.5997L92.2897 30.9948H92.2997Z" fill="#347DC1"/>
<path id="Vector_20" d="M109.42 31.8786H112.82V30.5379H109.42V28.2339H113.03V26.8833H107.77V35.851H113.23V34.5004H109.42V31.8687V31.8786Z" fill="#347DC1"/>
<path id="Vector_21" d="M104.33 28.1048C104.94 28.1048 105.54 28.2141 106.09 28.4524L106.45 27.1515C106.12 26.9727 105.35 26.7542 104.26 26.7542C101.5 26.7542 99.4199 28.5319 99.4199 31.4814C99.4199 34.2124 101.17 36 104.04 36C105.13 36 105.99 35.7915 106.38 35.5928L106.11 34.3018C105.67 34.5004 104.98 34.6295 104.31 34.6295C102.32 34.6295 101.17 33.3782 101.17 31.4019C101.17 29.2469 102.49 28.1048 104.33 28.1048Z" fill="#347DC1"/>
<path id="Vector_22" d="M69.9104 30.6372C68.7004 30.1804 68.1804 29.8527 68.1804 29.1674C68.1804 28.6411 68.6203 28.085 69.6703 28.085C70.3003 28.085 70.9204 28.224 71.4704 28.512L71.8704 27.1912C71.4004 26.9528 70.6803 26.7443 69.7003 26.7443C67.7403 26.7443 66.5004 27.8466 66.5004 29.3164C66.5004 30.5975 67.4503 31.392 68.9503 31.9183C70.0903 32.3255 70.5504 32.7327 70.5504 33.408C70.5504 34.1429 69.9604 34.6295 68.9104 34.6295C68.1504 34.6295 67.4004 34.4309 66.7304 34.0535L66.3604 35.4141C66.8504 35.712 67.8404 35.9901 68.8004 35.9901C71.1304 35.9901 72.2304 34.7387 72.2304 33.2987C72.2304 32.0077 71.4704 31.2232 69.9004 30.6372H69.9104Z" fill="#347DC1"/>
<path id="Vector_23" d="M75.3697 31.8786H78.7697V30.5379H75.3697V28.2339H78.9797V26.8833H73.7197V35.851H79.1797V34.5004H75.3797V31.8687L75.3697 31.8786Z" fill="#347DC1"/>
<path id="Vector_24" d="M117.82 30.6372C116.61 30.1804 116.09 29.8527 116.09 29.1674C116.09 28.6411 116.53 28.085 117.58 28.085C118.21 28.085 118.83 28.224 119.38 28.512L119.78 27.1912C119.31 26.9528 118.59 26.7443 117.61 26.7443C115.65 26.7443 114.41 27.8466 114.41 29.3164C114.41 30.5975 115.36 31.392 116.86 31.9183C118 32.3255 118.46 32.7327 118.46 33.408C118.46 34.1429 117.87 34.6295 116.82 34.6295C116.06 34.6295 115.3 34.4309 114.64 34.0535L114.27 35.4141C114.76 35.712 115.76 35.9901 116.71 35.9901C119.04 35.9901 120.14 34.7387 120.14 33.2987C120.14 32.0077 119.38 31.2232 117.81 30.6372H117.82Z" fill="#347DC1"/>
<path id="Vector_25" d="M12.3703 35.3743C14.4703 34.5898 16.0903 33.1398 17.1403 31.0047L14.7803 26.7939C13.7303 29.9123 11.9003 31.5807 9.38033 31.5807C6.86033 31.5807 5.03033 30.0711 5.03033 26.635L4.97033 28.6113C4.51033 32.8022 7.03033 36.5363 12.3603 35.3743H12.3703Z" fill="url(#paint1_linear_376_51553)"/>
<path id="Vector_26" d="M18.1897 21.7987C18.1897 31.114 21.9597 36.3178 33.9097 34.5402C37.7397 32.5639 40.4597 28.5617 42.3497 22.4243L43.4497 18.8392C42.3997 17.4886 41.9797 15.9791 41.9797 14.3702C41.9797 12.6522 42.6097 11.093 43.6597 9.95093C42.0897 11.6193 40.7797 14.0624 39.7297 17.4985L38.5197 21.4511C36.3697 28.4227 32.9697 31.7495 27.6697 31.7495C21.8497 31.7495 18.1797 27.7473 18.1797 21.8185L18.1897 21.7987Z" fill="url(#paint2_linear_376_51553)"/>
<path id="Vector_27" d="M33.9102 34.5401C21.9602 36.3078 18.1902 29.9619 18.1902 21.7986C18.1902 15.8698 21.8602 11.808 27.1502 11.808C28.8902 11.798 30.6102 12.1655 32.1802 12.9004C32.8602 13.2082 33.4402 13.3175 33.9602 13.3175C35.2202 13.3175 36.0602 12.4833 36.0602 11.232C36.0602 10.4474 35.5902 9.6728 34.4902 9.14645C32.5002 8.15335 29.9302 7.58728 27.1502 7.58728C18.8702 7.58728 13.1602 13.4168 13.1602 21.888C13.1602 30.3591 18.6602 35.99 27.5202 35.99C29.9302 35.99 32.0302 35.5233 33.9102 34.5302V34.5401Z" fill="url(#paint3_linear_376_51553)"/>
<path id="Vector_28" d="M13.1504 21.8979C13.1504 13.4168 18.8604 7.59723 27.1404 7.59723C29.9204 7.59723 32.4904 8.17323 34.4804 9.1564C35.5804 9.67282 36.0504 10.4574 36.0504 11.2419C36.0504 12.4932 35.2104 13.3274 33.9504 13.3274C33.4304 13.3274 32.8504 13.2281 32.1704 12.9103C30.6004 12.1754 28.8804 11.808 27.1404 11.8179C19.8604 11.8179 13.1504 16.3961 13.1504 21.9078V21.8979Z" fill="url(#paint4_linear_376_51553)"/>
<path id="Vector_29" d="M44.4405 9.26562C43.9705 9.71252 43.7005 10.3382 43.7105 10.9837C43.7105 12.7018 45.3305 15.254 49.1105 17.846L53.4105 20.8154C56.5505 23.0002 57.8105 25.0858 57.8105 28.2041C57.8105 30.4386 56.9205 32.3652 55.4505 33.7158C55.9705 33.2491 56.2905 32.6234 56.2905 31.7892C56.2905 29.9718 54.4505 27.1117 50.5205 24.4005L46.5905 21.6993C43.2905 19.4151 41.9805 17.28 41.9805 14.3602C41.9805 12.6422 42.6105 11.083 43.6605 9.94094C43.9105 9.70259 44.1705 9.47418 44.4505 9.26562H44.4405Z" fill="url(#paint5_linear_376_51553)"/>
<path id="Vector_30" d="M49.1102 17.8461C47.4302 16.6543 46.7002 15.5619 46.7002 14.261C46.7002 12.5926 48.0602 11.5597 50.0002 11.5597C52.4602 11.5597 53.6202 12.7018 55.0802 12.7018C56.2302 12.7018 57.0202 11.9172 57.0202 10.7752C57.0202 9.94097 56.6002 9.26566 55.5002 8.74925C53.7702 7.91504 51.8802 7.60718 49.8402 7.60718C47.6902 7.60718 45.8002 8.23283 44.4402 9.27559C43.9702 9.72249 43.7002 10.3481 43.7102 10.9937C43.7102 12.7018 45.3402 15.2541 49.1102 17.856V17.8461Z" fill="url(#paint6_linear_376_51553)"/>
<path id="Vector_31" d="M0 12.9004C0 9.78207 2.04 7.9051 5.03 7.9051V2.60193C5.03 1.04276 3.98 0 2.52 0C1.06 0 0 1.04276 0 2.60193V12.9004Z" fill="url(#paint7_linear_376_51553)"/>
<path id="Vector_32" d="M8.91 35.9504C10.09 35.9504 11.26 35.7617 12.37 35.3744C7.08 36.2582 5.09 32.6433 5.03 28.6113V11.9669H11.16C12.58 11.9669 13.52 11.1327 13.52 9.94097C13.52 8.74925 12.58 7.91504 11.16 7.91504H5.03C2.04 7.91504 0 9.792 0 12.9103V27.211C0 32.9313 3.3 35.9504 8.91 35.9504Z" fill="url(#paint8_linear_376_51553)"/>
</g>
<defs>
<linearGradient id="paint0_linear_376_51553" x1="55.01" y1="28.9986" x2="40.823" y2="32.7813" gradientUnits="userSpaceOnUse">
<stop stop-color="#EE3984"/>
<stop offset="1" stop-color="#7800DA"/>
</linearGradient>
<linearGradient id="paint1_linear_376_51553" x1="4.17033" y1="32.4347" x2="18.6918" y2="27.7886" gradientUnits="userSpaceOnUse">
<stop stop-color="#EE3984"/>
<stop offset="1" stop-color="#7800DA"/>
</linearGradient>
<linearGradient id="paint2_linear_376_51553" x1="26.1297" y1="29.8229" x2="35.8214" y2="13.8835" gradientUnits="userSpaceOnUse">
<stop stop-color="#EE3984"/>
<stop offset="1" stop-color="#7800DA"/>
</linearGradient>
<linearGradient id="paint3_linear_376_51553" x1="23.7702" y1="14.6979" x2="28.8842" y2="32.8803" gradientUnits="userSpaceOnUse">
<stop stop-color="#FF0000"/>
<stop offset="1" stop-color="#EE3984"/>
</linearGradient>
<linearGradient id="paint4_linear_376_51553" x1="13.1504" y1="14.7476" x2="36.0604" y2="14.7476" gradientUnits="userSpaceOnUse">
<stop stop-color="#FFC708"/>
<stop offset="1" stop-color="#FA3B00"/>
</linearGradient>
<linearGradient id="paint5_linear_376_51553" x1="41.9805" y1="21.4808" x2="57.8105" y2="21.4808" gradientUnits="userSpaceOnUse">
<stop stop-color="#FF0000"/>
<stop offset="1" stop-color="#EE3984"/>
</linearGradient>
<linearGradient id="paint6_linear_376_51553" x1="43.7102" y1="12.7217" x2="57.0202" y2="12.7217" gradientUnits="userSpaceOnUse">
<stop stop-color="#FFC708"/>
<stop offset="1" stop-color="#F05731"/>
</linearGradient>
<linearGradient id="paint7_linear_376_51553" x1="2.52" y1="1.37048" x2="2.52" y2="11.669" gradientUnits="userSpaceOnUse">
<stop stop-color="#FFC708"/>
<stop offset="1" stop-color="#F05731"/>
</linearGradient>
<linearGradient id="paint8_linear_376_51553" x1="8.22" y1="9.28552" x2="5.54656" y2="28.7852" gradientUnits="userSpaceOnUse">
<stop stop-color="#F80000"/>
<stop offset="1" stop-color="#EE3984"/>
</linearGradient>
<clipPath id="clip0_376_51553">
<rect width="152.23" height="36" fill="white"/>
</clipPath>
</defs>
</svg>
