<svg width="26" height="26" viewBox="0 0 26 26" fill="none" xmlns="http://www.w3.org/2000/svg">
<mask id="mask0_376_52177" style="mask-type:luminance" maskUnits="userSpaceOnUse" x="0" y="0" width="26" height="26">
<path d="M26 0H0V26H26V0Z" fill="white"/>
</mask>
<g mask="url(#mask0_376_52177)">
<path d="M12.8356 25.7111C9.51851 25.7111 6.33731 24.3935 3.99173 22.048C1.64615 19.7026 0.328317 16.5214 0.328125 13.2044C0.353207 9.90377 1.68197 6.74687 4.02478 4.4218C6.36759 2.09672 9.53449 0.791992 12.8352 0.791992C16.1359 0.791992 19.3028 2.09672 21.6456 4.4218C23.9884 6.74687 25.3172 9.90377 25.3423 13.2044C25.3423 16.5214 24.0246 19.7025 21.6792 22.048C19.3337 24.3934 16.1526 25.7111 12.8356 25.7111Z" stroke="white" stroke-miterlimit="10"/>
<path d="M12.7279 13.5496L12.2888 12.9119L8.71021 7.71189H10.2493L13.1432 11.9174L13.5823 12.5551L17.3509 18.0303H15.8111L12.7279 13.5496ZM7.24121 6.94055L8.07393 8.15027L11.7681 13.5178L12.2072 14.1556L15.1755 18.4679L15.4059 18.8023H18.8199L17.9872 17.5926L14.103 11.9499L13.6639 11.3114L10.8855 7.27494L10.6552 6.94055H7.24121Z" fill="white"/>
<path d="M11.7682 13.5178L7.22754 18.8023H8.21265L12.2073 14.1555L12.728 13.5496L12.2889 12.9119L11.7682 13.5178Z" fill="white"/>
<path d="M17.4244 6.94055L16.5816 7.917L13.6653 11.3114L13.1445 11.9174L13.5836 12.5551L14.1044 11.9499L18.4088 6.94055H17.4244Z" fill="white"/>
</g>
</svg>
