<svg width="24" height="24" viewBox="0 0 24 24" fill="none" xmlns="http://www.w3.org/2000/svg">
<path id="Vector" d="M5.6 16C7.3648 16 8.8 14.5648 8.8 12.8C8.8 11.0352 7.3648 9.6 5.6 9.6C3.8352 9.6 2.4 11.0352 2.4 12.8C2.4 14.5648 3.8352 16 5.6 16ZM5.6 11.2C6.4824 11.2 7.2 11.9176 7.2 12.8C7.2 13.6824 6.4824 14.4 5.6 14.4C4.7176 14.4 4 13.6824 4 12.8C4 11.9176 4.7176 11.2 5.6 11.2ZM7.3504 16.8H3.8504C1.7272 16.8 0 18.5272 0 20.6504V24H11.2V20.6496C11.2 18.5272 9.4728 16.8 7.3504 16.8ZM9.6 22.4H1.6V20.6496C1.6 19.4096 2.6096 18.4 3.8504 18.4H7.3504C8.5904 18.4 9.6 19.4096 9.6 20.6504V22.4ZM18.4 12.8C20.1648 12.8 21.6 11.3648 21.6 9.6C21.6 7.8352 20.1648 6.4 18.4 6.4C16.6352 6.4 15.2 7.8352 15.2 9.6C15.2 11.3648 16.6352 12.8 18.4 12.8ZM18.4 8C19.2824 8 20 8.7176 20 9.6C20 10.4824 19.2824 11.2 18.4 11.2C17.5176 11.2 16.8 10.4824 16.8 9.6C16.8 8.7176 17.5176 8 18.4 8ZM20.1504 13.6H16.6504C14.5272 13.6 12.8 15.3272 12.8 17.4504V20.8H24V17.4496C24 15.3272 22.2728 13.6 20.1504 13.6ZM22.4 19.2H14.4V17.4496C14.4 16.2096 15.4096 15.2 16.6504 15.2H20.1504C21.3904 15.2 22.4 16.2096 22.4 17.4504V19.2ZM12.8 11.2V8H15.2V0H2.4V8H8.5336L12.8 11.2ZM4 1.6H13.6V6.4H11.2V8L9.0664 6.4H4V1.6ZM7.2 4C7.2 4.4416 6.8416 4.8 6.4 4.8C5.9584 4.8 5.6 4.4416 5.6 4C5.6 3.5584 5.9584 3.2 6.4 3.2C6.8416 3.2 7.2 3.5584 7.2 4ZM8.8 4.8C8.3584 4.8 8 4.4416 8 4C8 3.5584 8.3584 3.2 8.8 3.2C9.2416 3.2 9.6 3.5584 9.6 4C9.6 4.4416 9.2416 4.8 8.8 4.8ZM10.4 4C10.4 3.5584 10.7584 3.2 11.2 3.2C11.6416 3.2 12 3.5584 12 4C12 4.4416 11.6416 4.8 11.2 4.8C10.7584 4.8 10.4 4.4416 10.4 4Z" fill="#2ECC71"/>
</svg>
