<svg width="24" height="24" viewBox="0 0 24 24" fill="none" xmlns="http://www.w3.org/2000/svg">
<path fill-rule="evenodd" clip-rule="evenodd" d="M0.788502 10.0119C3.15162 10.0119 4.33729 7.14905 2.66649 5.47824C2.35862 5.17036 2.35862 4.67118 2.66649 4.3633L4.36352 2.66625C4.67139 2.35838 5.17056 2.35838 5.47844 2.66625C7.14924 4.33707 10.0121 3.15139 10.0121 0.788245C10.0121 0.352657 10.365 0 10.8003 0H13.2002C13.6356 0 13.9885 0.352657 13.9885 0.788245C13.9885 3.1543 16.8492 4.33919 18.5221 2.66625C18.83 2.35838 19.3291 2.35838 19.6367 2.66625L21.3338 4.3633C21.6417 4.67118 21.6417 5.17036 21.3338 5.47824C19.663 7.14905 20.8486 10.0119 23.2118 10.0119C23.6473 10.0119 24 10.3648 24 10.8001V12.0001H17.8645C17.8645 8.76157 15.2391 6.13612 12.0005 6.13612C8.76201 6.13612 6.13659 8.76157 6.13659 12.0001H0.00106049V10.8001C0.000265121 10.3651 0.352919 10.0119 0.788502 10.0119ZM1.01451 16.5282C1.16659 16.5282 1.31099 16.5619 1.44029 16.6218L3.23137 14.8307L3.22554 12.7001H3.9229L3.929 14.9451C3.938 15.0447 3.90409 15.1475 3.82778 15.2239L1.93496 17.1167C1.99483 17.2463 2.02848 17.3904 2.02848 17.5425C2.02848 18.1026 1.57435 18.5567 1.01424 18.5567C0.454132 18.5567 1.90735e-06 18.1026 1.90735e-06 17.5425C0.000267029 16.9824 0.454397 16.5282 1.01451 16.5282ZM22.5594 16.6218L20.7684 14.8307L20.7742 12.7004H20.0768L20.0707 14.9454C20.0617 15.045 20.0956 15.1478 20.1717 15.2241L22.0645 17.117C22.0046 17.2465 21.971 17.3907 21.971 17.5428C21.971 18.1029 22.4251 18.557 22.9852 18.557C23.5453 18.557 23.9995 18.1029 23.9995 17.5428C23.9995 16.9826 23.5453 16.5285 22.9852 16.5285C22.8331 16.5282 22.689 16.5616 22.5594 16.6218ZM19.6516 22.0648C19.7811 22.0049 19.9253 21.9712 20.0774 21.9712C20.6375 21.9712 21.0916 22.4254 21.0916 22.9855C21.0916 23.5456 20.6375 23.9997 20.0774 23.9997C19.5173 23.9997 19.0631 23.5456 19.0631 22.9855C19.0631 22.8334 19.0968 22.689 19.1567 22.5597L15.6163 19.0194C15.548 18.951 15.5138 18.8614 15.5138 18.7719V12.7001H16.2138V18.627L19.6516 22.0648ZM12.35 19.3119V12.7001H11.65V19.3119C11.2624 19.4544 10.9858 19.8269 10.9858 20.2641C10.9858 20.8242 11.4399 21.2784 12 21.2784C12.5601 21.2784 13.0142 20.8242 13.0142 20.2641C13.0142 19.8269 12.7376 19.4544 12.35 19.3119ZM4.84335 22.5597L8.38365 19.0194C8.45201 18.951 8.48619 18.8614 8.48619 18.7719V12.7001H7.78618V18.627L4.34842 22.0648C4.21885 22.0049 4.07472 21.9712 3.92263 21.9712C3.36252 21.9712 2.90839 22.4254 2.90839 22.9855C2.90839 23.5456 3.36252 24 3.92263 24C4.48275 24 4.93688 23.5459 4.93688 22.9857C4.93688 22.8334 4.90349 22.6893 4.84335 22.5597ZM7.78645 12.0001H16.2138C16.2138 9.67302 14.3274 7.78627 12 7.78627C9.67265 7.78627 7.78645 9.67302 7.78645 12.0001Z" fill="#2ECC71"/>
</svg>
