<svg width="73" height="58" viewBox="0 0 73 58" fill="none" xmlns="http://www.w3.org/2000/svg">
<g id="Wipro" clip-path="url(#clip0_376_51586)">
<path id="Vector" d="M66.1036 22.7766C66.5241 24.3007 68.122 25.2321 69.6359 24.8088C71.1497 24.3854 72.0748 22.7766 71.6543 21.2526C71.2338 19.7285 69.6359 18.7971 68.122 19.2204C66.6082 19.5591 65.6831 21.1679 66.1036 22.7766Z" fill="#2A4C87"/>
<path id="Vector_2" d="M62.1513 25.8248C63.1605 25.5708 63.8334 24.4701 63.581 23.3693C63.3287 22.3533 62.2354 21.6759 61.1421 21.9299C60.1329 22.1839 59.4601 23.2847 59.7124 24.3854C59.9647 25.4861 61.058 26.1635 62.1513 25.8248Z" fill="#2A4C87"/>
<path id="Vector_3" d="M56.3484 26.8409C57.1053 26.5869 57.6099 25.8248 57.3576 25.0628C57.1053 24.3007 56.3484 23.7927 55.5914 24.0467C54.8345 24.3007 54.3299 25.0628 54.5822 25.8248C54.7504 26.5869 55.5914 27.0949 56.3484 26.8409Z" fill="#2A4C87"/>
<path id="Vector_4" d="M51.8065 27.6029C52.3111 27.4336 52.5634 26.9256 52.4793 26.5022C52.3952 25.9942 51.8065 25.7402 51.386 25.8248C50.8814 25.9942 50.6291 26.5022 50.7132 26.9256C50.7973 27.3489 51.3019 27.6876 51.8065 27.6029Z" fill="#2E4E88"/>
<path id="Vector_5" d="M63.9169 16.8496C64.6738 18.1197 66.2718 18.5431 67.5333 17.8657C68.7948 17.1037 69.2153 15.4949 68.5425 14.2248C67.7856 12.9547 66.1877 12.5314 64.9261 13.2088C63.6646 13.8861 63.2441 15.5796 63.9169 16.8496Z" fill="#1F3D70"/>
<path id="Vector_6" d="M58.114 20.1518C58.6186 21.0832 59.712 21.3372 60.6371 20.8292C61.5622 20.3212 61.8145 19.2204 61.3099 18.289C60.8053 17.3577 59.712 17.1036 58.7869 17.6117C57.9458 18.1197 57.6094 19.3051 58.114 20.1518Z" fill="#1F3D70"/>
<path id="Vector_7" d="M53.9931 21.0832C53.3203 21.4219 53.1521 22.2686 53.4885 22.8613C53.8249 23.5387 54.6659 23.708 55.2546 23.3694C55.9275 23.0307 56.0957 22.184 55.7593 21.5913C55.4229 20.9139 54.5818 20.7445 53.9931 21.0832Z" fill="#1F3D70"/>
<path id="Vector_8" d="M50.2928 23.7927C49.8723 24.0467 49.7041 24.5547 49.9564 24.9781C50.2087 25.4014 50.7133 25.5708 51.1339 25.3168C51.5544 25.0628 51.7226 24.5547 51.4703 24.1314C51.218 23.708 50.6292 23.5387 50.2928 23.7927Z" fill="#1F3D70"/>
<path id="Vector_9" d="M63.6643 11.6C64.5895 10.6686 64.5895 9.14451 63.6643 8.21313C62.7392 7.28174 61.2254 7.28174 60.3003 8.21313C59.3752 9.14451 59.3752 10.6686 60.3003 11.6C61.2254 12.5314 62.7392 12.5314 63.6643 11.6Z" fill="#194C88"/>
<path id="Vector_10" d="M57.8615 14.0555C57.1887 13.3781 56.0954 13.3781 55.4226 14.0555C54.7498 14.7328 54.7498 15.8336 55.4226 16.5109C56.0954 17.1883 57.1887 17.1883 57.8615 16.5109C58.5343 15.8336 58.5343 14.7328 57.8615 14.0555Z" fill="#194C88"/>
<path id="Vector_11" d="M51.6382 18.6277C51.1336 19.1358 51.1336 19.8978 51.6382 20.3212C52.1428 20.8292 52.8997 20.8292 53.3202 20.3212C53.8249 19.8131 53.8249 19.0511 53.3202 18.6277C52.8997 18.1197 52.1428 18.1197 51.6382 18.6277Z" fill="#194C88"/>
<path id="Vector_12" d="M48.6951 23.2C49.0315 23.5387 49.5361 23.5387 49.7884 23.2C50.1248 22.8613 50.1248 22.3533 49.7884 22.0993C49.452 21.7606 48.9474 21.7606 48.6951 22.0993C48.4428 22.438 48.4428 22.946 48.6951 23.2Z" fill="#194C88"/>
<path id="Vector_13" d="M55.3389 7.62043C56.4322 8.21313 57.7778 7.87444 58.3665 6.77371C58.9552 5.67298 58.6188 4.31824 57.5255 3.72554C56.4322 3.13284 55.0866 3.47152 54.4978 4.57225C53.825 5.58831 54.2455 6.94306 55.3389 7.62043Z" fill="#3468A3"/>
<path id="Vector_14" d="M51.3022 11.4306C50.8817 12.1927 51.134 13.2087 51.8909 13.6321C52.6478 14.0555 53.657 13.8014 54.0775 13.0394C54.498 12.2774 54.2457 11.2613 53.4888 10.8379C52.6478 10.3299 51.7227 10.6686 51.3022 11.4306Z" fill="#3468A3"/>
<path id="Vector_15" d="M50.2087 16.3416C49.7041 16.0876 49.0313 16.2569 48.779 16.765C48.5267 17.273 48.6949 17.9504 49.1995 18.2044C49.7041 18.4584 50.3769 18.2891 50.6292 17.781C50.8815 17.3577 50.7133 16.6803 50.2087 16.3416Z" fill="#3468A3"/>
<path id="Vector_16" d="M47.7691 20.6599C47.4327 20.4905 47.0122 20.5752 46.7599 20.9139C46.5917 21.2526 46.6758 21.6759 47.0122 21.9299C47.3486 22.184 47.7691 22.0146 48.0214 21.6759C48.2737 21.2526 48.1055 20.8292 47.7691 20.6599Z" fill="#3468A3"/>
<path id="Vector_17" d="M49.3676 4.99564C50.4609 5.33433 51.6383 4.65696 51.9747 3.47155C52.3111 2.37082 51.6383 1.18542 50.4609 0.846737C49.3676 0.592723 48.1902 1.18542 47.8537 2.37082C47.6014 3.55623 48.2743 4.65696 49.3676 4.99564Z" fill="#4C8DCB"/>
<path id="Vector_18" d="M47.6017 11.6847C48.3586 11.9387 49.1996 11.4307 49.3678 10.6686C49.6201 9.9066 49.1155 9.05988 48.3586 8.89054C47.6017 8.63653 46.7607 9.14455 46.5925 9.9066C46.4243 10.6686 46.8448 11.4307 47.6017 11.6847Z" fill="#4C8DCB"/>
<path id="Vector_19" d="M46.2562 16.9343C46.7608 17.1036 47.3495 16.7649 47.4336 16.2569C47.6018 15.7489 47.2654 15.1562 46.7608 15.0715C46.2562 14.9022 45.6675 15.2409 45.5834 15.7489C45.4152 16.2569 45.6675 16.7649 46.2562 16.9343Z" fill="#4C8DCB"/>
<path id="Vector_20" d="M44.6577 20.2365C44.5736 20.5752 44.7418 20.9985 45.1624 21.0832C45.4988 21.1679 45.9193 20.9985 46.0034 20.5752C46.0875 20.2365 45.9193 19.8131 45.4988 19.7284C45.1624 19.6438 44.7418 19.8978 44.6577 20.2365Z" fill="#4C8DCB"/>
<path id="Vector_21" d="M42.9755 3.97956C44.0688 3.97956 44.9939 3.04818 44.9939 1.94745C44.9939 0.846715 44.0688 0 42.9755 0C41.8821 0 40.957 0.931387 40.957 2.03212C41.0411 3.13285 41.9662 3.97956 42.9755 3.97956Z" fill="#3498B3"/>
<path id="Vector_22" d="M42.9755 8.29779C42.2186 8.29779 41.6299 8.89049 41.6299 9.65253C41.6299 10.4146 42.2186 11.0073 42.9755 11.0073C43.7324 11.0073 44.3211 10.4146 44.3211 9.65253C44.3211 8.89049 43.7324 8.29779 42.9755 8.29779Z" fill="#3498B3"/>
<path id="Vector_23" d="M43.901 15.4949C43.901 14.9868 43.4805 14.5635 42.9759 14.5635C42.4713 14.5635 42.0508 14.9868 42.0508 15.4949C42.0508 16.0029 42.4713 16.4262 42.9759 16.4262C43.5646 16.4262 43.901 16.0029 43.901 15.4949Z" fill="#3498B3"/>
<path id="Vector_24" d="M42.9754 19.4744C42.639 19.4744 42.3867 19.7284 42.3867 20.0671C42.3867 20.4058 42.639 20.6598 42.9754 20.6598C43.3118 20.6598 43.5641 20.4058 43.5641 20.0671C43.6482 19.7284 43.3118 19.4744 42.9754 19.4744Z" fill="#3498B3"/>
<path id="Vector_25" d="M36.5845 4.7416C37.5937 4.48759 38.1824 3.47153 37.846 2.45547C37.5937 1.43941 36.5845 0.846711 35.5753 1.1854C34.5661 1.52408 33.9774 2.45547 34.3138 3.47153C34.5661 4.40292 35.5753 4.99562 36.5845 4.7416Z" fill="#0AA496"/>
<path id="Vector_26" d="M36.9208 10.5839C37.089 11.2613 37.7618 11.6 38.3505 11.4307C39.0233 11.2613 39.3597 10.5839 39.1915 9.99125C39.0233 9.31388 38.3505 8.97519 37.7618 9.14453C37.089 9.31388 36.7526 9.90658 36.9208 10.5839Z" fill="#0AA496"/>
<path id="Vector_27" d="M38.687 16.1722C38.7711 16.6803 39.2757 16.9343 39.6962 16.7649C40.2008 16.6803 40.4531 16.1722 40.2849 15.7489C40.2008 15.2409 39.6962 14.9868 39.2757 15.1562C38.8552 15.2409 38.6029 15.7489 38.687 16.1722Z" fill="#0AA496"/>
<path id="Vector_28" d="M40.2006 20.5752C40.2847 20.8292 40.537 20.9985 40.8734 20.9139C41.1257 20.8292 41.2939 20.5752 41.2098 20.2365C41.1257 19.9825 40.8734 19.8131 40.537 19.8978C40.2847 19.9825 40.1165 20.2365 40.2006 20.5752Z" fill="#0AA496"/>
<path id="Vector_29" d="M30.5292 7.1971C31.3702 6.68907 31.6225 5.67301 31.202 4.8263C30.7815 3.97958 29.6882 3.72557 28.8472 4.14893C28.0062 4.65696 27.7539 5.67301 28.1744 6.51973C28.5949 7.36644 29.6882 7.62046 30.5292 7.1971Z" fill="#00AA75"/>
<path id="Vector_30" d="M33.8933 13.1241C34.3979 12.8701 34.5661 12.1927 34.3138 11.6847C34.0615 11.1766 33.3887 11.0073 32.8841 11.2613C32.3795 11.5153 32.2113 12.1927 32.4636 12.7007C32.8 13.2087 33.3887 13.3781 33.8933 13.1241Z" fill="#00AA75"/>
<path id="Vector_31" d="M36.7518 18.035C37.1723 17.781 37.2564 17.3577 37.0041 16.9343C36.7518 16.511 36.3313 16.4263 35.9108 16.6803C35.4903 16.9343 35.4062 17.3577 35.6585 17.781C35.8267 18.1197 36.3313 18.2044 36.7518 18.035Z" fill="#00AA75"/>
<path id="Vector_32" d="M39.0234 21.0832C38.8552 20.8292 38.6029 20.8292 38.3506 20.9139C38.1824 20.9985 38.0983 21.3372 38.1824 21.5066C38.3506 21.7606 38.6029 21.7606 38.7711 21.6759C39.0234 21.5912 39.1075 21.2525 39.0234 21.0832Z" fill="#00AA75"/>
<path id="Vector_33" d="M25.2308 11.092C25.8195 10.4993 25.8195 9.48323 25.2308 8.80585C24.6421 8.21315 23.6329 8.21315 22.9601 8.80585C22.3714 9.39855 22.3714 10.4146 22.9601 11.092C23.6329 11.6847 24.6421 11.6847 25.2308 11.092Z" fill="#4FBA6A"/>
<path id="Vector_34" d="M30.1086 14.6482C29.7721 14.3095 29.1834 14.3095 28.847 14.6482C28.5106 14.9869 28.5106 15.5796 28.847 15.9183C29.1834 16.2569 29.7721 16.2569 30.1086 15.9183C30.445 15.5796 30.445 14.9869 30.1086 14.6482Z" fill="#4FBA6A"/>
<path id="Vector_35" d="M34.0608 18.9665C33.8084 18.7124 33.3038 18.7124 33.0515 18.9665C32.7992 19.2205 32.7992 19.7285 33.0515 19.9825C33.3038 20.2365 33.8084 20.2365 34.0608 19.9825C34.3131 19.7285 34.3131 19.2205 34.0608 18.9665Z" fill="#4FBA6A"/>
<path id="Vector_36" d="M37.0888 22.438C36.9206 22.2686 36.6683 22.2686 36.5842 22.438C36.416 22.6073 36.416 22.8613 36.5842 22.946C36.7524 23.0307 37.0047 23.1154 37.0888 22.946C37.257 22.8613 37.257 22.6073 37.0888 22.438Z" fill="#4FBA6A"/>
<path id="Vector_37" d="M19.091 16.7649C19.7639 17.1883 20.689 16.9343 21.1095 16.2569C21.53 15.5795 21.2777 14.6482 20.6049 14.2248C19.9321 13.8014 19.0069 14.0555 18.5864 14.7328C18.1659 15.4102 18.4182 16.3416 19.091 16.7649Z" fill="#7EC45F"/>
<path id="Vector_38" d="M26.7441 18.6277C26.3236 18.3737 25.9031 18.5431 25.6508 18.8817C25.3985 19.3051 25.5667 19.7285 25.9031 19.9825C26.3236 20.2365 26.7441 20.0672 26.9964 19.7285C27.2487 19.3051 27.0805 18.8818 26.7441 18.6277Z" fill="#7EC45F"/>
<path id="Vector_39" d="M31.7905 21.6759C31.4541 21.5066 31.0336 21.5912 30.8654 21.9299C30.6971 22.2686 30.7812 22.692 31.1177 22.8613C31.4541 23.0307 31.8746 22.946 32.0428 22.6073C32.211 22.2686 32.0428 21.8453 31.7905 21.6759Z" fill="#7EC45F"/>
<path id="Vector_40" d="M69.8043 25.7402C68.0381 25.7402 66.6084 27.1796 66.6084 28.9577C66.6084 30.7358 68.0381 32.1752 69.8043 32.1752C71.5704 32.1752 73.0001 30.7358 73.0001 28.9577C73.0001 27.1796 71.5704 25.7402 69.8043 25.7402Z" fill="#4C609B"/>
<path id="Vector_41" d="M64.5903 28.9576C64.5903 27.6876 63.5811 26.6715 62.3196 26.6715C61.058 26.6715 60.0488 27.6876 60.0488 28.9576C60.0488 30.2277 61.058 31.2438 62.3196 31.2438C63.5811 31.2438 64.5903 30.2277 64.5903 28.9576Z" fill="#4C609B"/>
<path id="Vector_42" d="M56.4318 27.4336C55.5908 27.4336 54.918 28.111 54.918 28.9577C54.918 29.8044 55.5908 30.4818 56.4318 30.4818C57.2728 30.4818 57.9456 29.8044 57.9456 28.9577C58.0297 28.111 57.2728 27.4336 56.4318 27.4336Z" fill="#4C609B"/>
<path id="Vector_43" d="M52.8993 28.9576C52.8993 28.3649 52.4788 27.9416 51.8901 27.9416C51.3014 27.9416 50.8809 28.3649 50.8809 28.9576C50.8809 29.5503 51.3014 29.9737 51.8901 29.9737C52.4788 29.9737 52.8993 29.5503 52.8993 28.9576Z" fill="#54669F"/>
<path id="Vector_44" d="M69.6359 33.1066C68.122 32.6832 66.5241 33.6146 66.1036 35.1387C65.6831 36.6628 66.6082 38.2715 68.122 38.6949C69.6359 39.1182 71.2338 38.1868 71.6543 36.6628C72.1589 35.1387 71.1497 33.5299 69.6359 33.1066Z" fill="#746FA7"/>
<path id="Vector_45" d="M61.142 35.9008C62.1512 36.1548 63.2445 35.5621 63.5809 34.4613C63.8332 33.4453 63.2445 32.3445 62.1512 32.0059C61.142 31.7518 60.0487 32.3445 59.7123 33.4453C59.46 34.546 60.0487 35.5621 61.142 35.9008Z" fill="#746FA7"/>
<path id="Vector_46" d="M55.5914 33.8686C56.3484 34.1226 57.1894 33.6146 57.3576 32.8525C57.6099 32.0905 57.1053 31.2438 56.3484 31.0744C55.5914 30.8204 54.7504 31.3285 54.5822 32.0905C54.3299 32.8525 54.8345 33.6146 55.5914 33.8686Z" fill="#746FA7"/>
<path id="Vector_47" d="M51.302 32.1752C51.8066 32.3445 52.3112 32.0058 52.3953 31.4978C52.5635 30.9898 52.2271 30.4818 51.7225 30.3971C51.2179 30.2277 50.7133 30.5664 50.6292 31.0745C50.5451 31.4978 50.8815 32.0058 51.302 32.1752Z" fill="#746FA7"/>
<path id="Vector_48" d="M67.5335 40.1343C66.272 39.3722 64.6741 39.8803 63.9172 41.1503C63.1602 42.4204 63.6649 44.0292 64.9264 44.7912C66.1879 45.5533 67.7858 45.0452 68.5427 43.7752C69.2155 42.5051 68.795 40.8963 67.5335 40.1343Z" fill="#99558E"/>
<path id="Vector_49" d="M61.3098 39.5416C61.8144 38.6102 61.5621 37.5095 60.6369 37.0014C59.7118 36.4934 58.6185 36.7474 58.1139 37.6788C57.6093 38.6102 57.8616 39.7109 58.7867 40.219C59.7118 40.8117 60.8052 40.473 61.3098 39.5416Z" fill="#99558E"/>
<path id="Vector_50" d="M55.7593 36.3241C56.0957 35.6467 55.9275 34.8847 55.2546 34.546C54.5818 34.2073 53.8249 34.3766 53.4885 35.054C53.1521 35.7314 53.3203 36.4934 53.9931 36.8321C54.5818 37.1708 55.4229 37.0015 55.7593 36.3241Z" fill="#99558E"/>
<path id="Vector_51" d="M51.4703 33.7839C51.7226 33.3606 51.5544 32.8525 51.1339 32.5985C50.7133 32.3445 50.2087 32.5139 49.9564 32.9372C49.7041 33.3606 49.8723 33.8686 50.2928 34.1226C50.7133 34.3766 51.218 34.2073 51.4703 33.7839Z" fill="#99558E"/>
<path id="Vector_52" d="M60.3003 46.3153C59.3752 47.2467 59.3752 48.7708 60.3003 49.7022C61.2254 50.6335 62.7392 50.6335 63.6643 49.7022C64.5895 48.7708 64.5895 47.2467 63.6643 46.3153C62.7392 45.3839 61.2254 45.3839 60.3003 46.3153Z" fill="#AF3379"/>
<path id="Vector_53" d="M57.8615 43.8599C58.5343 43.1825 58.5343 42.0818 57.8615 41.4044C57.1887 40.727 56.0954 40.727 55.4226 41.4044C54.7498 42.0818 54.7498 43.1825 55.4226 43.8599C56.0954 44.5372 57.1887 44.5372 57.8615 43.8599Z" fill="#AF3379"/>
<path id="Vector_54" d="M53.3202 39.2876C53.8249 38.7796 53.8249 38.0175 53.3202 37.5942C52.8156 37.0861 52.0587 37.0861 51.6382 37.5942C51.1336 38.1022 51.1336 38.8642 51.6382 39.2876C52.1428 39.7956 52.8997 39.7956 53.3202 39.2876Z" fill="#AF3379"/>
<path id="Vector_55" d="M48.6951 35.816C49.0315 36.1547 49.5361 36.1547 49.7884 35.816C50.1248 35.4774 50.1248 34.9693 49.7884 34.7153C49.452 34.3766 48.9474 34.3766 48.6951 34.7153C48.4428 34.9693 48.4428 35.4774 48.6951 35.816Z" fill="#AF3379"/>
<path id="Vector_56" d="M55.3386 50.2949C54.2453 50.8876 53.9089 52.327 54.4976 53.343C55.0863 54.4438 56.516 54.7825 57.5252 54.1898C58.5344 53.5971 58.955 52.1576 58.3662 51.1416C57.7775 50.0409 56.3478 49.7022 55.3386 50.2949Z" fill="#BE266A"/>
<path id="Vector_57" d="M53.9935 44.9606C53.573 44.1985 52.5638 43.9445 51.8069 44.3679C51.05 44.7912 50.7977 45.8073 51.2182 46.5693C51.6387 47.3314 52.6479 47.5854 53.4048 47.162C54.1617 46.654 54.4981 45.7226 53.9935 44.9606Z" fill="#BE266A"/>
<path id="Vector_58" d="M50.2087 41.5737C50.7133 41.3197 50.8815 40.6423 50.6292 40.1343C50.3769 39.6263 49.7041 39.4569 49.1995 39.7109C48.6949 39.965 48.5267 40.6423 48.779 41.1504C49.1154 41.6584 49.7041 41.8277 50.2087 41.5737Z" fill="#BE266A"/>
<path id="Vector_59" d="M47.0964 35.9854C46.76 36.1548 46.5918 36.6628 46.8441 37.0015C47.0123 37.3402 47.5169 37.5095 47.8534 37.2555C48.1898 37.0862 48.358 36.5781 48.1057 36.2394C47.8534 35.9008 47.4328 35.8161 47.0964 35.9854Z" fill="#BE266A"/>
<path id="Vector_60" d="M49.3676 52.9197C48.2743 53.2584 47.6014 54.3591 47.8537 55.5445C48.1902 56.6452 49.2835 57.3226 50.4609 57.0686C51.5542 56.7299 52.227 55.6292 51.9747 54.4438C51.7224 53.2584 50.545 52.581 49.3676 52.9197Z" fill="#D4525C"/>
<path id="Vector_61" d="M48.3581 49.0248C49.115 48.7708 49.6196 48.0087 49.3673 47.2467C49.115 46.4846 48.3581 45.9766 47.6012 46.2306C46.8443 46.4846 46.3397 47.2467 46.592 48.0087C46.8443 48.8554 47.6012 49.2788 48.3581 49.0248C48.3581 49.0812 48.3581 49.0812 48.3581 49.0248Z" fill="#D4525C"/>
<path id="Vector_62" d="M47.433 41.6584C47.2648 41.1503 46.7602 40.8117 46.2556 40.981C45.751 41.1503 45.4146 41.6584 45.5828 42.1664C45.751 42.6744 46.2556 43.0131 46.7602 42.8438C47.2648 42.7591 47.6013 42.2511 47.433 41.6584C47.433 41.7148 47.433 41.7148 47.433 41.6584Z" fill="#D4525C"/>
<path id="Vector_63" d="M45.9195 37.3401C45.8354 37.0014 45.4149 36.7474 45.0785 36.8321C44.7421 36.9168 44.4898 37.3401 44.5739 37.6788C44.658 38.0175 44.9944 38.2715 45.4149 38.1868C45.8354 38.1022 46.0036 37.6788 45.9195 37.3401Z" fill="#D4525C"/>
<path id="Vector_64" d="M42.9755 53.9358C41.8821 53.9358 40.957 54.8672 40.957 55.9679C40.957 57.0686 41.8821 58 42.9755 58C44.0688 58 44.9939 57.1533 44.9939 55.9679C44.9939 54.7825 44.1529 53.9358 42.9755 53.9358Z" fill="#E0654F"/>
<path id="Vector_65" d="M41.7139 48.3474C41.7139 49.1095 42.3026 49.7022 43.0595 49.7022C43.8164 49.7022 44.4051 49.1095 44.4051 48.3474C44.4051 47.5854 43.8164 46.9927 43.0595 46.9927C42.3026 46.9927 41.7139 47.5854 41.7139 48.3474Z" fill="#E0654F"/>
<path id="Vector_66" d="M42.9759 43.3518C43.4805 43.3518 43.901 42.9285 43.901 42.4205C43.901 41.9124 43.4805 41.4891 42.9759 41.4891C42.4713 41.4891 42.0508 41.9124 42.0508 42.4205C42.1349 42.9285 42.4713 43.3518 42.9759 43.3518Z" fill="#E0654F"/>
<path id="Vector_67" d="M42.9754 37.2555C42.639 37.2555 42.3867 37.5095 42.3867 37.8482C42.3867 38.1869 42.639 38.4409 42.9754 38.4409C43.3118 38.4409 43.5641 38.1869 43.5641 37.8482C43.6482 37.5095 43.3118 37.2555 42.9754 37.2555Z" fill="#E0654F"/>
<path id="Vector_68" d="M36.5842 53.1737C35.575 52.9197 34.5658 53.5124 34.3135 54.4438C34.0612 55.4599 34.6499 56.4759 35.575 56.7299C36.5842 56.984 37.5934 56.3913 37.8457 55.4599C38.098 54.4438 37.5093 53.4278 36.5842 53.1737Z" fill="#F57F2A"/>
<path id="Vector_69" d="M38.3499 46.4846C37.6771 46.3153 37.0884 46.7387 36.9202 47.3314C36.752 48.0087 37.1725 48.6014 37.7612 48.7708C38.434 48.9401 39.0227 48.5168 39.1909 47.9241C39.3591 47.3314 38.9386 46.654 38.3499 46.4846Z" fill="#F57F2A"/>
<path id="Vector_70" d="M39.7802 41.0657C39.2756 40.981 38.8551 41.235 38.771 41.6584C38.6869 42.1664 38.9392 42.5898 39.3597 42.6744C39.8643 42.7591 40.2848 42.5051 40.3689 42.0817C40.5371 41.743 40.2007 41.235 39.7802 41.0657Z" fill="#F57F2A"/>
<path id="Vector_71" d="M41.2098 37.6788C41.2939 37.4248 41.1257 37.0861 40.8734 37.0015C40.6211 36.9168 40.2847 37.0861 40.2006 37.3401C40.1165 37.5942 40.2847 37.9328 40.537 38.0175C40.8734 38.1022 41.2098 37.9328 41.2098 37.6788Z" fill="#F57F2A"/>
<path id="Vector_72" d="M30.5284 50.7182C29.6874 50.2102 28.6781 50.5489 28.1735 51.3109C27.6689 52.1577 28.0053 53.1737 28.7622 53.6818C29.6033 54.1898 30.6125 53.8511 31.1171 53.0891C31.6217 52.327 31.2853 51.2263 30.5284 50.7182Z" fill="#F89828"/>
<path id="Vector_73" d="M33.8933 44.7913C33.3887 44.5372 32.7159 44.7066 32.4636 45.2146C32.2113 45.7226 32.3795 46.4 32.8841 46.654C33.3887 46.908 34.0615 46.7387 34.3138 46.2307C34.5661 45.7226 34.3979 45.0453 33.8933 44.7913Z" fill="#F89828"/>
<path id="Vector_74" d="M35.9109 41.3197C36.3314 41.5737 36.7519 41.4044 37.0042 41.0657C37.2565 40.727 37.0883 40.219 36.7519 39.965C36.3314 39.7109 35.9109 39.8803 35.6586 40.219C35.4063 40.5577 35.5745 41.0657 35.9109 41.3197Z" fill="#F89828"/>
<path id="Vector_75" d="M38.8549 36.2394C38.6026 36.0701 38.3503 36.1547 38.2662 36.4088C38.098 36.6628 38.1821 36.9168 38.4344 37.0015C38.6867 37.1708 38.939 37.0861 39.0231 36.8321C39.1072 36.6628 39.0231 36.3241 38.8549 36.2394Z" fill="#F89828"/>
<path id="Vector_76" d="M22.9601 46.8234C22.3714 47.4161 22.3714 48.4321 22.9601 49.1095C23.5488 49.7869 24.558 49.7022 25.2308 49.1095C25.8195 48.5168 25.8195 47.5007 25.2308 46.8234C24.6421 46.2307 23.6329 46.2307 22.9601 46.8234Z" fill="#FEC127"/>
<path id="Vector_77" d="M28.763 41.9971C28.4266 42.3358 28.4266 42.9285 28.763 43.2672C29.0995 43.6058 29.6882 43.6058 30.0246 43.2672C30.361 42.9285 30.361 42.3358 30.0246 41.9971C29.6882 41.5737 29.0995 41.5737 28.763 41.9971Z" fill="#FEC127"/>
<path id="Vector_78" d="M33.0515 37.9328C32.7992 38.1869 32.7992 38.6949 33.0515 38.9489C33.3038 39.2029 33.8084 39.2029 34.0608 38.9489C34.3131 38.6949 34.3131 38.1869 34.0608 37.9328C33.8084 37.5942 33.3038 37.5942 33.0515 37.9328Z" fill="#FEC127"/>
<path id="Vector_79" d="M37.0888 34.8847C36.9206 34.7154 36.6683 34.7154 36.5842 34.8847C36.416 35.054 36.416 35.3081 36.5842 35.3927C36.7524 35.5621 37.0047 35.5621 37.0888 35.3927C37.257 35.3081 37.257 35.054 37.0888 34.8847Z" fill="#FEC127"/>
<path id="Vector_80" d="M19.091 41.1503C18.4182 41.5737 18.1659 42.4204 18.5864 43.1825C19.0069 43.8598 19.848 44.1138 20.6049 43.6905C21.2777 43.2671 21.53 42.4204 21.1095 41.6584C20.689 40.981 19.848 40.727 19.091 41.1503Z" fill="#FED627"/>
<path id="Vector_81" d="M25.9871 37.9329C25.6507 38.1869 25.4825 38.6102 25.7348 39.0336C25.9871 39.3723 26.4076 39.5416 26.8281 39.2876C27.1645 39.0336 27.3327 38.6102 27.0804 38.1869C26.8281 37.8482 26.3235 37.6788 25.9871 37.9329Z" fill="#FED627"/>
<path id="Vector_82" d="M31.1177 35.054C30.7812 35.2234 30.6971 35.6467 30.8654 35.9854C31.0336 36.3241 31.4541 36.4088 31.7905 36.2394C32.1269 36.0701 32.211 35.6467 32.0428 35.308C31.7905 34.9694 31.4541 34.8847 31.1177 35.054Z" fill="#FED627"/>
<path id="Vector_83" d="M16.1475 24.3007H18.5023V33.2759H16.1475V24.3007ZM17.5772 20.3212C16.8203 20.1518 16.1475 20.5752 15.8952 21.2525C15.6429 21.9299 16.1475 22.692 16.8203 22.946C17.4931 23.2 18.25 22.692 18.5023 22.0146C18.7546 21.2525 18.3341 20.4905 17.5772 20.3212ZM25.6509 33.5299C25.0622 33.5299 24.5576 33.4452 23.9689 33.1912C23.4643 32.9372 23.1279 32.6832 22.7915 32.2598V37.8482H20.5207V24.3007H22.7915V25.5708C23.0438 25.1474 23.4643 24.8087 23.9689 24.5547C24.4735 24.3007 25.0622 24.1314 25.6509 24.1314C26.2396 24.1314 26.7442 24.216 27.2488 24.4701C27.7535 24.7241 28.2581 24.9781 28.5945 25.4014C29.015 25.8248 29.3514 26.3328 29.5196 26.9255C29.7719 27.5182 29.856 28.1956 29.856 28.873C29.856 29.5504 29.7719 30.2277 29.5196 30.8204C29.2673 31.3285 28.9309 31.8365 28.5104 32.3445C27.8376 33.1066 26.8283 33.5299 25.6509 33.5299ZM25.2304 31.3285C25.5668 31.3285 25.9032 31.2438 26.2396 31.1591C26.4919 30.9898 26.8283 30.8204 26.9965 30.6511C27.2488 30.3971 27.417 30.1431 27.5012 29.889C27.7535 29.2117 27.7535 28.5343 27.5012 27.8569C27.417 27.6029 27.1647 27.2642 26.9965 27.0949C26.7442 26.8409 26.4919 26.6715 26.2396 26.5868C25.9032 26.4175 25.5668 26.4175 25.2304 26.4175C24.5576 26.4175 23.9689 26.6715 23.4643 27.1795C23.212 27.4336 23.0438 27.6876 22.9597 27.9416C22.7074 28.619 22.7074 29.2963 22.9597 29.889C23.0438 30.1431 23.212 30.4817 23.4643 30.6511C23.8848 31.0744 24.5576 31.3285 25.2304 31.3285ZM31.6221 24.3007H33.8929V25.6555C34.0611 25.1474 34.3975 24.7241 34.9021 24.4701C35.4067 24.216 35.9113 24.0467 36.4159 24.1314C36.6682 24.1314 37.0046 24.1314 37.2569 24.216C37.5092 24.3007 37.7615 24.3854 37.9297 24.4701L37.0887 26.7562C36.9205 26.6715 36.7523 26.5868 36.5841 26.5022C36.3318 26.4175 36.0795 26.4175 35.9113 26.4175C35.4067 26.4175 34.9021 26.5868 34.4816 26.9255C34.1452 27.2642 33.977 27.7722 33.977 28.5343V33.2759H31.7062L31.6221 24.3007ZM42.8917 33.5299C42.2189 33.5299 41.6302 33.4452 41.0415 33.1912C40.4528 32.9372 39.9482 32.5985 39.5276 32.1752C38.6866 31.3285 38.182 30.1431 38.182 28.873C38.182 28.2803 38.2661 27.6029 38.5184 27.0102C38.7707 26.4175 39.1071 25.9095 39.5276 25.4861C41.3779 23.6233 44.4055 23.6233 46.2558 25.4861C47.0968 26.3328 47.6014 27.5182 47.6014 28.7883C47.6014 29.381 47.5173 30.0584 47.265 30.5664C47.0127 31.1591 46.6763 31.6671 46.2558 32.0905C45.8353 32.5139 45.3306 32.8525 44.7419 33.1066C44.2373 33.3606 43.5645 33.5299 42.8917 33.5299ZM42.9758 31.3285C43.3122 31.3285 43.6486 31.2438 43.985 31.1591C44.2373 30.9898 44.4896 30.8204 44.7419 30.6511C44.9942 30.3971 45.1624 30.1431 45.2465 29.889C45.4988 29.2117 45.4988 28.5343 45.2465 27.9416C45.1624 27.6876 44.9942 27.3489 44.7419 27.1795C44.4896 26.9255 44.2373 26.7562 43.985 26.6715C43.3963 26.4175 42.6394 26.4175 42.0507 26.6715C41.7984 26.8409 41.5461 27.0102 41.2938 27.1795C41.0415 27.4336 40.8733 27.6876 40.7892 27.9416C40.5369 28.619 40.5369 29.2963 40.7892 29.889C40.8733 30.1431 41.0415 30.4817 41.2938 30.6511C41.5461 30.8204 41.7984 31.0744 42.0507 31.1591C42.303 31.2438 42.6394 31.3285 42.9758 31.3285ZM0 24.3007H2.35484L4.12097 30.0584L6.2235 24.3007H8.24194L10.3445 30.0584L12.1947 24.3007H14.5495L11.5219 33.2759H9.33525L7.23272 27.4336L5.04608 33.2759H2.85945L0 24.3007Z" fill="#351A55"/>
</g>
<defs>
<clipPath id="clip0_376_51586">
<rect width="73" height="58" fill="white"/>
</clipPath>
</defs>
</svg>
